<?xml version="1.0" encoding="utf-8"?>
<!-- Generator: Adobe Illustrator 26.0.1, SVG Export Plug-In . SVG Version: 6.00 Build 0)  -->
<svg version="1.1" id="Layer_1" xmlns="http://www.w3.org/2000/svg" xmlns:xlink="http://www.w3.org/1999/xlink" x="0px" y="0px"
	 viewBox="0 0 512 512" style="enable-background:new 0 0 512 512;" xml:space="preserve">
<style type="text/css">
	.st0{fill:#FFFFFF;}
</style>
<g>
	<path class="st0" d="M256,456.6c-106.8,0-193.7-86.9-193.7-193.7S149.2,69.2,256,69.2c30.6-0.1,60.8,7.2,88.1,21.1
		c5.5,2.8,7.6,9.5,4.8,14.9c-2.8,5.5-9.5,7.6-14.9,4.8l0,0c-24.1-12.4-50.9-18.8-78-18.7c-94.6,0-171.5,76.9-171.5,171.5
		S161.4,434.4,256,434.4s171.5-77,171.5-171.6c0-14.7-1.9-29.4-5.6-43.7c-1.4-5.9,2.2-11.9,8.2-13.4c5.8-1.4,11.6,2,13.3,7.7
		c4.2,16.1,6.3,32.7,6.3,49.3C449.7,369.7,362.8,456.6,256,456.6z"/>
	<path class="st0" d="M250,309.6c-2.9,0-5.8-1.2-7.8-3.2l-56.1-56.1c-4.1-4.6-3.7-11.6,0.9-15.6c4.2-3.8,10.6-3.8,14.8,0l48.3,48.3
		l175-175c4.4-4.3,11.4-4.1,15.7,0.3c4.1,4.3,4.1,11.1,0,15.4L257.9,306.4C255.8,308.4,253,309.6,250,309.6L250,309.6z"/>
</g>
</svg>
