<?xml version="1.0" encoding="utf-8"?>
<!-- Generator: Adobe Illustrator 26.0.1, SVG Export Plug-In . SVG Version: 6.00 Build 0)  -->
<svg version="1.1" id="Layer_1" xmlns="http://www.w3.org/2000/svg" xmlns:xlink="http://www.w3.org/1999/xlink" x="0px" y="0px"
	 viewBox="0 0 552.6 498.9" style="enable-background:new 0 0 552.6 498.9;" xml:space="preserve">
<style type="text/css">
	.st0{fill:url(#SVGID_1_);}
	.st1{fill:#FFFBE7;stroke:#000000;stroke-miterlimit:10;}
	.st2{fill:#FFFBE7;}
	.st3{fill:url(#SVGID_00000165215720637121951210000018073914663605761948_);}
	.st4{fill:url(#SVGID_00000145766093864486751890000010650577986146274479_);}
	.st5{fill:url(#SVGID_00000117661128223169072380000005467494182998872962_);}
	.st6{fill:url(#SVGID_00000147936966912534859210000010983798358870319260_);}
	.st7{fill:none;}
	.st8{fill:#FFFCF0;}
</style>
<linearGradient id="SVGID_1_" gradientUnits="userSpaceOnUse" x1="0" y1="94.525" x2="529.3385" y2="94.525">
	<stop  offset="0.1702" style="stop-color:#FEFCEA"/>
	<stop  offset="0.1794" style="stop-color:#FEFCEA"/>
	<stop  offset="0.4761" style="stop-color:#FFFBE7"/>
</linearGradient>
<path class="st0" d="M529.3,0v189H0v-81.2c0-2.1,0.2-4.1,0.6-6.1c0,0,0,0,0,0c0.6-3.5,1.7-6.8,3.3-10c0-0.1,0-0.1,0.1-0.1
	c0,0,0,0,0-0.1c0,0,0,0,0-0.1c0,0,0-0.1,0-0.1c0,0,0.1-0.1,0.1-0.1c0-0.1,0.1-0.2,0.1-0.3c0,0,0-0.1,0.1-0.1c0-0.1,0.1-0.2,0.1-0.3
	c0,0,0.1-0.1,0.1-0.1c0.1-0.3,0.3-0.6,0.5-0.8c0,0,0-0.1,0.1-0.1C7.3,86,10.5,82,15.4,77.6c9.3-8.5,63.8-58.2,71.7-65.4
	c4.2-3.3,8.1-5.7,11.7-7.4c0,0,0.1,0,0.1,0c0.8-0.4,1.5-0.8,2.4-1.2c0.1,0,0.2-0.1,0.3-0.2c0.5-0.2,1.1-0.5,1.7-0.7
	c0.1,0,0.1-0.1,0.2-0.1c0,0,0,0,0.1,0c0,0,0.1,0,0.3-0.1c0.1-0.1,0.3-0.1,0.4-0.2c0.2-0.1,0.3-0.1,0.5-0.2c0.5-0.2,1-0.3,1.5-0.5
	c0,0,0,0,0.1,0c0.8-0.2,1.7-0.4,2.6-0.6c0,0,0,0,0,0c0.3-0.1,0.5-0.1,0.8-0.2c0.6-0.1,1.2-0.2,1.9-0.3c0.3-0.1,0.7-0.1,1-0.1
	c0.1,0,0.2,0,0.3,0c0.3,0,0.6-0.1,0.8-0.1c0,0,0.1,0,0.1,0c0.1,0,0.2,0,0.2,0c0.2,0,0.5,0,0.7,0h0.1c0.1,0,0.2,0,0.4,0
	C116.2,0,117.1,0,118,0H529.3z"/>
<path class="st1" d="M35.2,91.5"/>
<path class="st2" d="M57.3,90.2c-0.1,0.1-0.1,0.3-0.2,0.4c-0.1,0.3-0.3,0.5-0.4,0.8c0,0,0-0.1,0-0.1c0,0,0.1-0.1,0.1-0.1
	c0-0.1,0.1-0.2,0.1-0.3c0,0,0-0.1,0.1-0.1c0-0.1,0.1-0.2,0.1-0.3c0,0,0-0.1,0.1-0.1C57.3,90.3,57.3,90.3,57.3,90.2z"/>
<path class="st2" d="M57.3,90.2C57.3,90.2,57.3,90.2,57.3,90.2C57.3,90.2,57.3,90.2,57.3,90.2C57.3,90.2,57.3,90.2,57.3,90.2z"/>
<path class="st2" d="M114.4,0.1c-0.1,0-0.1,0-0.2,0c0,0,0,0,0,0C114.3,0.1,114.3,0.1,114.4,0.1z"/>
<linearGradient id="SVGID_00000045615410581746064380000004891617466924268200_" gradientUnits="userSpaceOnUse" x1="56.7691" y1="91.4074" x2="56.703" y2="91.3413">
	<stop  offset="0" style="stop-color:#FFFFFF;stop-opacity:0"/>
	<stop  offset="0.5168" style="stop-color:#FEFCEA"/>
	<stop  offset="1" style="stop-color:#FFFFFF;stop-opacity:0"/>
</linearGradient>
<path style="fill:url(#SVGID_00000045615410581746064380000004891617466924268200_);" d="M56.8,91.3c0,0,0,0.1,0,0.1c0,0,0,0,0,0.1
	C56.7,91.4,56.8,91.4,56.8,91.3z"/>
<linearGradient id="SVGID_00000125577894939743524650000012998568276735791748_" gradientUnits="userSpaceOnUse" x1="99.5534" y1="-60.9235" x2="509.168" y2="299.2925">
	<stop  offset="0" style="stop-color:#565656;stop-opacity:5.000000e-02"/>
	<stop  offset="1.500434e-02" style="stop-color:#6D6B69;stop-opacity:0.1337"/>
	<stop  offset="3.878665e-02" style="stop-color:#908C89;stop-opacity:0.2665"/>
	<stop  offset="6.327160e-02" style="stop-color:#B2ADA8;stop-opacity:0.4031"/>
	<stop  offset="8.823481e-02" style="stop-color:#CECAC3;stop-opacity:0.5425"/>
	<stop  offset="0.1139" style="stop-color:#E6E2D9;stop-opacity:0.6856"/>
	<stop  offset="0.1406" style="stop-color:#F7F4E9;stop-opacity:0.8348"/>
	<stop  offset="0.1702" style="stop-color:#FFFCF0"/>
	<stop  offset="0.2135" style="stop-color:#FFFCF0"/>
	<stop  offset="0.4761" style="stop-color:#FFFCF0"/>
</linearGradient>
<path style="fill:url(#SVGID_00000125577894939743524650000012998568276735791748_);" d="M552.6,0v189H0v-81.2
	c0-2.1,0.2-4.1,0.6-6.1c0,0,0,0,0,0c0.6-3.5,1.7-6.8,3.3-10c0-0.1,0-0.1,0.1-0.1c0,0,0,0,0-0.1c0,0,0,0,0-0.1c0,0,0-0.1,0-0.1
	c0,0,0.1-0.1,0.1-0.1c0-0.1,0.1-0.2,0.1-0.3c0,0,0-0.1,0.1-0.1c0,0,0.1-0.1,0.1-0.1c0.1-0.1,0.1-0.3,0.2-0.4c0,0,0,0,0,0
	c0,0,0,0,0,0c0,0,0,0,0,0c0.1-0.2,0.2-0.4,0.3-0.6c0,0,0-0.1,0.1-0.1C7.3,86,10.5,82,15.4,77.6c9.3-8.5,63.8-58.2,71.7-65.4
	c4.2-3.3,8.1-5.7,11.7-7.4c0,0,0.1,0,0.1,0c0.8-0.4,1.5-0.8,2.4-1.2c0.1,0,0.2-0.1,0.3-0.2c0.5-0.2,1.1-0.5,1.7-0.7
	c0.1,0,0.1-0.1,0.2-0.1c0,0,0,0,0.1,0c0,0,0.1,0,0.3-0.1c0.1-0.1,0.3-0.1,0.4-0.2c0.2-0.1,0.3-0.1,0.5-0.2c0.5-0.2,1-0.3,1.5-0.5
	c0,0,0,0,0.1,0c0.8-0.2,1.6-0.4,2.5-0.6c0,0,0.1,0,0.1,0c0,0,0,0,0,0c0.3-0.1,0.5-0.1,0.8-0.2c0.6-0.1,1.2-0.2,1.9-0.3
	c0.3-0.1,0.7-0.1,1-0.1c0.1,0,0.2,0,0.3,0c0.3,0,0.6-0.1,0.8-0.1c0,0,0.1,0,0.1,0c0.1,0,0.2,0,0.2,0c0.2,0,0.5,0,0.7,0h0.1
	c0.1,0,0.2,0,0.4,0C116.2,0,117.1,0,118,0H552.6z"/>
<path class="st2" d="M67.8,60C28.5,61.8,11.5,79.8,4.7,90.1c0.1-0.2,0.2-0.4,0.3-0.6c0,0,0-0.1,0.1-0.1C7.3,86,10.5,82,15.4,77.6
	c9.3-8.5,63.8-58.2,71.7-65.4c4.2-3.3,8.1-5.7,11.7-7.4C71.7,20.4,67.8,60,67.8,60z"/>
<linearGradient id="SVGID_00000088826074502505707360000001350937981990567329_" gradientUnits="userSpaceOnUse" x1="64.9053" y1="60.7994" x2="40.9464" y2="36.8674">
	<stop  offset="0" style="stop-color:#FFFCF0"/>
	<stop  offset="0.5168" style="stop-color:#FEFCEA"/>
	<stop  offset="1" style="stop-color:#FFFCF0"/>
</linearGradient>
<path style="fill:url(#SVGID_00000088826074502505707360000001350937981990567329_);" d="M67.8,60C23.3,62.9,11.5,79.8,4.7,90.1
	c0,0,0,0,0,0c0,0,0,0,0,0c0,0,0,0,0,0c0,0-0.1,0.1-0.1,0.1c0.1-0.3,0.3-0.6,0.5-0.8c0,0,0-0.1,0.1-0.1C7.3,86,10.5,82,15.4,77.6
	c9.3-8.5,63.8-58.2,71.7-65.4c4.2-3.3,8.1-5.7,11.7-7.4C71.7,20.4,67.8,60,67.8,60z"/>
<linearGradient id="SVGID_00000084507071540771415810000001789415627988891307_" gradientUnits="userSpaceOnUse" x1="114.316" y1="0.1766" x2="114.2018" y2="6.253339e-02">
	<stop  offset="0" style="stop-color:#FFFFFF;stop-opacity:0"/>
	<stop  offset="0.5168" style="stop-color:#FEFCEA"/>
	<stop  offset="1" style="stop-color:#FFFFFF;stop-opacity:0"/>
</linearGradient>
<path style="fill:url(#SVGID_00000084507071540771415810000001789415627988891307_);" d="M114.4,0.1c-0.1,0-0.1,0-0.2,0c0,0,0,0,0,0
	C114.3,0.1,114.3,0.1,114.4,0.1z"/>
<path class="st7" d="M105.9,0.3c0.7-0.1,2.8-0.2,3.9-0.2c1.1-0.1,2.5-0.1-0.8,0.9c0,0,0,0,0,0c-0.9,0.2-1.8,0.4-2.6,0.6
	c0,0,0,0-0.1,0c-0.5,0.1-1.1,0.3-1.5,0.5c-0.2,0.1-0.3,0.1-0.5,0.2c-0.1,0-0.3,0.1-0.4,0.1c-0.2,0.1-0.3,0.1-0.5,0.2
	c-0.7,0.2-1.2,0.5-1.7,0.7c-0.1,0-0.2,0.1-0.3,0.2c-0.8,0.3-1.2,0.6-1.2,0.6"/>
<rect y="185.2" class="st8" width="552.6" height="313.7"/>
<rect x="94.2" y="-94.3" class="st8" width="84.2" height="54.1"/>
</svg>
