<?xml version="1.0" encoding="utf-8"?>
<!-- Generator: Adobe Illustrator 26.0.1, SVG Export Plug-In . SVG Version: 6.00 Build 0)  -->
<svg version="1.1" id="Layer_1" xmlns="http://www.w3.org/2000/svg" xmlns:xlink="http://www.w3.org/1999/xlink" x="0px" y="0px"
	 viewBox="0 0 512 512" style="enable-background:new 0 0 512 512;" xml:space="preserve">
<style type="text/css">
	.st0{fill:#3E3286;}
</style>
<g>
	<path class="st0" d="M392.5,273.1c-66,0-119.5,53.5-119.5,119.5S326.6,512,392.5,512S512,458.5,512,392.5
		C511.9,326.6,458.5,273.1,392.5,273.1z M392.5,477.9c-47.1,0-85.3-38.2-85.3-85.3c0-47.1,38.2-85.3,85.3-85.3s85.3,38.2,85.3,85.3
		C477.8,439.6,439.6,477.8,392.5,477.9z M460.8,0H324.3c-28.3,0-51.2,22.9-51.2,51.2v136.5c0,28.3,22.9,51.2,51.2,51.2h136.5
		c28.3,0,51.2-22.9,51.2-51.2V51.2C512,22.9,489.1,0,460.8,0z M477.9,187.7c0,9.4-7.6,17.1-17.1,17.1H324.3
		c-9.4,0-17.1-7.6-17.1-17.1V51.2c0-9.4,7.6-17.1,17.1-17.1h136.5c9.4,0,17.1,7.6,17.1,17.1V187.7z M187.7,273.1H51.2
		C22.9,273.1,0,296,0,324.3v136.5C0,489.1,22.9,512,51.2,512h136.5c28.3,0,51.2-22.9,51.2-51.2V324.3
		C238.9,296,216,273.1,187.7,273.1z M204.8,460.8c0,9.4-7.6,17.1-17.1,17.1H51.2c-9.4,0-17.1-7.6-17.1-17.1V324.3
		c0-9.4,7.6-17.1,17.1-17.1h136.5c9.4,0,17.1,7.6,17.1,17.1V460.8z M187.7,0H51.2C22.9,0,0,22.9,0,51.2v136.5
		c0,28.3,22.9,51.2,51.2,51.2h136.5c28.3,0,51.2-22.9,51.2-51.2V51.2C238.9,22.9,216,0,187.7,0z M204.8,187.7
		c0,9.4-7.6,17.1-17.1,17.1H51.2c-9.4,0-17.1-7.6-17.1-17.1V51.2c0-9.4,7.6-17.1,17.1-17.1h136.5c9.4,0,17.1,7.6,17.1,17.1V187.7z"
		/>
</g>
<path class="st0" d="M238.9,51.2v136.5c0,28.3-22.9,51.2-51.2,51.2H51.2C22.9,238.9,0,216,0,187.7V51.2C0,22.9,22.9,0,51.2,0h136.5
	C216,0,238.9,22.9,238.9,51.2z"/>
<path class="st0" d="M238.9,324.3v136.5c0,28.3-22.9,51.2-51.2,51.2H51.2C22.9,512,0,489.1,0,460.8V324.3
	c0-28.3,22.9-51.2,51.2-51.2h136.5C216,273.1,238.9,296,238.9,324.3z"/>
<path class="st0" d="M512,392.5c0,66-53.6,119.5-119.5,119.5S273,458.6,273,392.6s53.5-119.5,119.5-119.5S511.9,326.6,512,392.5z"/>
<path class="st0" d="M512,51.2v136.5c0,28.3-22.9,51.2-51.2,51.2H324.3c-28.3,0-51.2-22.9-51.2-51.2V51.2C273.1,22.9,296,0,324.3,0
	h136.5C489.1,0,512,22.9,512,51.2z"/>
</svg>
