<?xml version="1.0" encoding="utf-8"?>
<!-- Generator: Adobe Illustrator 26.0.1, SVG Export Plug-In . SVG Version: 6.00 Build 0)  -->
<svg version="1.1" id="Layer_1" xmlns="http://www.w3.org/2000/svg" xmlns:xlink="http://www.w3.org/1999/xlink" x="0px" y="0px"
	 viewBox="0 0 512 512" style="enable-background:new 0 0 512 512;" xml:space="preserve">
<style type="text/css">
	.st0{fill-rule:evenodd;clip-rule:evenodd;fill:#EA4B54;}
</style>
<g>
	<path class="st0" d="M170.8,14.2C170.8,6.4,177.2,0,185,0l142,0c7.8,0,14.2,6.4,14.2,14.2v35.1H170.8V14.2z M404.3,491.7
		c-0.8,11.5-10.3,20.4-21.9,20.3H128c-11.5,0-21-8.9-21.9-20.4L84.3,173.1h343.2L404.3,491.7L404.3,491.7z M460.8,144.2H51.2v-33
		c0-18.2,14.8-33,33-33l343.6,0c18.2,0,33,14.8,33,33L460.8,144.2L460.8,144.2z M190,436.1c0,8,6.4,14.4,14.4,14.4
		c8,0,14.4-6.4,14.4-14.4c0,0,0,0,0,0V233.8c-0.1-8-6.6-14.4-14.5-14.3c-7.9,0.1-14.2,6.4-14.3,14.3L190,436.1L190,436.1z
		 M292.9,436.1c0,8,6.4,14.4,14.4,14.4c8,0,14.4-6.4,14.4-14.4c0,0,0,0,0,0V233.8c-0.1-8-6.6-14.4-14.5-14.3
		c-7.9,0.1-14.2,6.4-14.3,14.3L292.9,436.1z"/>
</g>
</svg>
