<?xml version="1.0" encoding="utf-8"?>
<!-- Generator: Adobe Illustrator 26.0.1, SVG Export Plug-In . SVG Version: 6.00 Build 0)  -->
<svg version="1.1" id="Layer_1" xmlns="http://www.w3.org/2000/svg" xmlns:xlink="http://www.w3.org/1999/xlink" x="0px" y="0px"
	 viewBox="0 0 512 512" style="enable-background:new 0 0 512 512;" xml:space="preserve">
<style type="text/css">
	.st0{fill:#3E3286;}
</style>
<g>
	<path class="st0" d="M503.5,271.8V168.4c0-11-6.6-20.7-16.8-24.8L286.3,63.5c-11-4.4-22.7-6.7-34.6-6.7c-11.9,0-23.5,2.2-34.6,6.7
		L16.8,143.6C6.6,147.7,0,157.4,0,168.4c0,11,6.6,20.7,16.8,24.8L82,219.3v149.1c-0.1,10.3,3.9,20.1,11.1,27.5
		c19.9,20.5,78.7,59.3,158.7,59.3c80,0,138.8-38.8,158.7-59.3c7.2-7.4,11.1-17.2,11.1-27.5V219.3l54.6-21.8v74.3
		c-5.3,4.2-8.5,10.6-8.5,17.4c0,12.2,10,22.2,22.2,22.2c12.2,0,22.2-10,22.2-22.2C512,282.4,508.9,276,503.5,271.8z M109.4,230.3
		l107.8,43.1c11.1,4.4,22.7,6.7,34.6,6.7c11.8,0,23.5-2.2,34.6-6.7l107.8-43.1v136.4l0,0v1.7c0,3.2-1.2,6.2-3.3,8.4
		c-17.1,17.6-68.2,50.9-139,50.9c-70.9,0-121.9-33.3-139-50.9c-2.2-2.3-3.4-5.3-3.3-8.4V230.3z M251.8,252.7
		c-8.4,0-16.6-1.6-24.4-4.7L28.6,168.4l198.7-79.5c7.8-3.1,16-4.7,24.4-4.7c8.3,0,16.5,1.6,24.4,4.7l198.8,79.5l-198.8,79.5
		C268.4,251.1,260.2,252.7,251.8,252.7z"/>
	<path class="st0" d="M235.7,90.9c-1.8,0-3.6,0.4-5.2,1l-64.4,25.7l-0.1,0l-0.3,0.1c-4,1.6-6.8,4.9-8,8.7c-2-1.1-4.3-1.8-6.7-1.8
		c-1.8,0-3.6,0.4-5.2,1l-23.7,9.5l-0.2,0.1l-0.3,0.2c-6.9,2.9-10.2,10.8-7.4,17.7c2.1,5.2,7.1,8.6,12.7,8.6c1.7,0,3.4-0.3,5.1-1
		c0,0,24.3-9.7,24.4-9.8c3.4-1.4,6-4.1,7.4-7.4c0.2-0.4,0.3-0.8,0.4-1.2c2,1.1,4.3,1.7,6.7,1.7c1.7,0,3.4-0.3,5.1-1
		c0,0,64.9-25.9,65-26c7-2.9,10.3-11,7.4-17.9C246.2,94.2,241.2,90.9,235.7,90.9z"/>
</g>
</svg>
