<?xml version="1.0" encoding="utf-8"?>
<!-- Generator: Adobe Illustrator 26.0.1, SVG Export Plug-In . SVG Version: 6.00 Build 0)  -->
<svg version="1.1" id="Layer_1" xmlns="http://www.w3.org/2000/svg" xmlns:xlink="http://www.w3.org/1999/xlink" x="0px" y="0px"
	 viewBox="0 0 512 512" style="enable-background:new 0 0 512 512;" xml:space="preserve">
<style type="text/css">
	.st0{fill:#545454;}
</style>
<g>
	<path class="st0" d="M256,131.9c65.4,0,120.8,29.8,155.8,54.9c41.4,29.6,62.7,58.3,68.2,69.3c-5.5,10.9-26.8,39.6-68.2,69.3
		c-34.9,25-90.3,54.9-155.8,54.9s-120.8-29.8-155.8-54.9C58.8,295.6,37.5,266.9,32,256c5.5-10.9,26.8-39.6,68.2-69.3
		C135.2,161.7,190.6,131.9,256,131.9 M256,100.8C114.6,100.8,0,225,0,256s114.6,155.2,256,155.2c141.4,0,256-124.1,256-155.2
		S397.4,100.8,256,100.8L256,100.8z M256,162.9c-51.4,0-93.1,41.7-93.1,93.1c0,51.4,41.7,93.1,93.1,93.1s93.1-41.7,93.1-93.1
		C349.1,204.6,307.4,162.9,256,162.9z M230.9,256c-21.8,0-39.4-17.6-39.4-39.4s17.6-39.4,39.4-39.4s39.4,17.6,39.4,39.4
		C270.3,238.4,252.7,256,230.9,256z"/>
</g>
</svg>
