<?xml version="1.0" encoding="utf-8"?>
<!-- Generator: Adobe Illustrator 26.0.1, SVG Export Plug-In . SVG Version: 6.00 Build 0)  -->
<svg version="1.1" id="Layer_1" xmlns="http://www.w3.org/2000/svg" xmlns:xlink="http://www.w3.org/1999/xlink" x="0px" y="0px"
	 viewBox="0 0 512 512" style="enable-background:new 0 0 512 512;" xml:space="preserve">
<style type="text/css">
	.st0{fill:#545454;}
</style>
<g>
	<path class="st0" d="M206.5,146.3c16.8-5.5,33.5-8.3,49.5-8.3c91,0,171.1,88.5,195.2,117.9c-13.9,17-29,32.9-45.3,47.6
		c-6.4,6.1-6.6,16.3-0.4,22.6c5.9,6.1,15.5,6.6,21.9,1.1c34.9-31.6,56.2-60.7,57.1-61.9c4.1-5.6,4.1-13.2,0-18.8
		C480.3,240.9,381,106.1,256,106.1c-19.4,0-39.4,3.3-59.5,9.9c-8.4,2.7-13,11.7-10.3,20.1c0,0,0,0,0,0
		C189,144.5,198,149.1,206.5,146.3C206.4,146.4,206.4,146.4,206.5,146.3z M51,42.7c-6.7-5.8-16.8-5.1-22.6,1.6S23.3,61,29.9,66.8
		l96.9,84.5c-58.9,40.2-97.6,92.9-99.4,95.3c-4.1,5.6-4.1,13.2,0,18.8C31.7,271.1,131,405.9,256,405.9c38.6,0,78.6-13.1,118.9-38.5
		l86.2,75.1c6.6,5.8,16.7,5.1,22.5-1.5c0,0,0,0,0.1-0.1c5.8-6.7,5.1-16.8-1.6-22.6L51,42.7z M213.6,226.9l71.8,62.6
		c-8.5,6.5-18.8,10-29.5,10c-26.9,0-48.8-21.9-48.8-48.8C207.2,242.1,209.6,234.1,213.6,226.9z M256,373.9
		c-91,0-171.1-88.5-195.2-117.9c14.1-17.3,47.6-54.8,91.2-82.9l37.1,32.3c-9.1,13.3-13.9,29.1-13.8,45.2c0,44.6,36.2,80.8,80.8,80.8
		c20,0,39.2-7.6,53.9-20.7l39.8,34.6C317.4,364.3,286,373.9,256,373.9z"/>
</g>
</svg>
