<?xml version="1.0" encoding="utf-8"?>
<!-- Generator: Adobe Illustrator 26.0.1, SVG Export Plug-In . SVG Version: 6.00 Build 0)  -->
<svg version="1.1" id="Layer_1" xmlns="http://www.w3.org/2000/svg" xmlns:xlink="http://www.w3.org/1999/xlink" x="0px" y="0px"
	 viewBox="0 0 512 512" style="enable-background:new 0 0 512 512;" xml:space="preserve">
<style type="text/css">
	.st0{fill:#3E3286;}
</style>
<g>
	<path class="st0" d="M480.7,19.1c-11.3-9.7-25.7-15-40.6-15v0.3H71.8C37.5,4.4,9.6,32.2,9.5,66.5c0,14.9,5.3,29.3,15,40.6
		L170.1,277c5.4,6.5,8.4,14.6,8.4,22.8v158.8c0,17.2,8.7,32.9,23.4,42c7.9,4.8,16.9,7.3,25.9,7.3c7.6,0,14.9-1.7,22-5.4l56.3-28.2
		c16.9-8.4,27.3-25.3,27.3-44.2V299.5c0-8.4,3.1-16.6,8.4-22.8l145.6-169.8C509.8,80.8,506.8,41.5,480.7,19.1z M455.4,79.6
		L309.8,249.4c-12.1,14.1-18.6,31.8-18.6,50.4v130.7c0,2.8-1.4,5.1-3.9,6.2L231,464.9c-3.1,1.7-5.6,0.6-6.8-0.3
		c-1.2-0.9-3.4-2.5-3.4-5.9V299.8c0-18.6-6.5-36.3-18.6-50.4L56.6,79.6c-3.1-3.6-4.8-8.2-4.8-13c0-11,9-20,20-20h368.3
		c11,0,20,9,20,20C460.1,71.4,458.5,75.9,455.4,79.6z"/>
</g>
<path class="st0" d="M487.4,106.9L341.8,276.7c-5.3,6.2-8.4,14.4-8.4,22.8v130.6c0,18.9-10.4,35.8-27.3,44.2l-56.3,28.2
	c-7.1,3.7-14.4,5.4-22,5.4c-9,0-18-2.5-25.9-7.3c-14.7-9.1-23.4-24.8-23.4-42V299.8c0-8.2-3-16.3-8.4-22.8L24.5,107.1
	c-9.7-11.3-15-25.7-15-40.6c0.1-34.3,28-62.1,62.3-62.1h368.3V4.1c14.9,0,29.3,5.3,40.6,15C506.8,41.5,509.8,80.8,487.4,106.9z"/>
</svg>
