<?xml version="1.0" encoding="utf-8"?>
<!-- Generator: Adobe Illustrator 26.0.1, SVG Export Plug-In . SVG Version: 6.00 Build 0)  -->
<svg version="1.1" id="Layer_1" xmlns="http://www.w3.org/2000/svg" xmlns:xlink="http://www.w3.org/1999/xlink" x="0px" y="0px"
	 viewBox="0 0 512 512" style="enable-background:new 0 0 512 512;" xml:space="preserve">
<style type="text/css">
	.st0{fill:#FFFFFF;}
</style>
<g>
	<path class="st0" d="M440.2,4.4H71.8C37.5,4.4,9.6,32.2,9.5,66.5c0,14.9,5.3,29.3,15,40.6L170.1,277c5.4,6.5,8.4,14.6,8.4,22.8
		v158.8c0,17.2,8.7,32.9,23.4,42c7.9,4.8,16.9,7.3,25.9,7.3c7.6,0,14.9-1.7,22-5.4l56.3-28.2c16.9-8.4,27.3-25.3,27.3-44.2V299.5
		c0-8.4,3.1-16.6,8.4-22.8l145.6-169.8c22.4-26.1,19.4-65.4-6.7-87.8c-11.3-9.7-25.7-15-40.6-15v0.3H440.2z M455.4,79.6L309.8,249.4
		c-12.1,14.1-18.6,31.8-18.6,50.4v130.7c0,2.8-1.4,5.1-3.9,6.2L231,464.9c-3.1,1.7-5.6,0.6-6.8-0.3s-3.4-2.5-3.4-5.9V299.8
		c0-18.6-6.5-36.3-18.6-50.4L56.6,79.6c-3.1-3.6-4.8-8.2-4.8-13c0-11,9-20,20-20h368.3c11,0,20,9,20,20
		C460.1,71.4,458.5,75.9,455.4,79.6L455.4,79.6z"/>
</g>
</svg>
