<?xml version="1.0" encoding="utf-8"?>
<!-- Generator: Adobe Illustrator 26.0.1, SVG Export Plug-In . SVG Version: 6.00 Build 0)  -->
<svg version="1.1" id="Layer_1" xmlns="http://www.w3.org/2000/svg" xmlns:xlink="http://www.w3.org/1999/xlink" x="0px" y="0px"
	 viewBox="0 0 512 512" style="enable-background:new 0 0 512 512;" xml:space="preserve">
<style type="text/css">
	.st0{fill:#3E3286;}
</style>
<g>
	<path class="st0" d="M499.2,222.7C499.2,222.7,499.2,222.7,499.2,222.7L290.3,13.8C281.4,4.9,269.6,0,257,0
		c-12.6,0-24.4,4.9-33.3,13.8L14.9,222.6c-0.1,0.1-0.1,0.1-0.2,0.2c-18.3,18.4-18.2,48.2,0.1,66.6c8.4,8.4,19.4,13.2,31.3,13.7
		c0.5,0,1,0.1,1.5,0.1h8.3v153.7c0,30.4,24.8,55.2,55.2,55.2h81.7c8.3,0,15-6.7,15-15V376.5c0-13.9,11.3-25.2,25.2-25.2h48.2
		c13.9,0,25.2,11.3,25.2,25.2V497c0,8.3,6.7,15,15,15H403c30.4,0,55.2-24.7,55.2-55.2V303.1h7.7c12.6,0,24.4-4.9,33.3-13.8
		C517.5,271,517.5,241.1,499.2,222.7L499.2,222.7z M478,268.1c-3.2,3.2-7.6,5-12.1,5h-22.7c-8.3,0-15,6.7-15,15v168.7
		c0,13.9-11.3,25.2-25.2,25.2h-66.7V376.5c0-30.4-24.7-55.2-55.2-55.2h-48.2c-30.4,0-55.2,24.8-55.2,55.2V482H111
		c-13.9,0-25.2-11.3-25.2-25.2V288.1c0-8.3-6.7-15-15-15H48.5c-0.2,0-0.5,0-0.7,0c-4.5-0.1-8.7-1.9-11.8-5c-6.7-6.7-6.7-17.6,0-24.2
		c0,0,0,0,0,0l0,0L244.9,35c3.2-3.2,7.6-5,12.1-5c4.6,0,8.9,1.8,12.1,5l208.8,208.8l0.1,0.1C484.6,250.6,484.6,261.5,478,268.1z"/>
</g>
</svg>
