<?xml version="1.0" encoding="utf-8"?>
<!-- Generator: Adobe Illustrator 26.0.1, SVG Export Plug-In . SVG Version: 6.00 Build 0)  -->
<svg version="1.1" id="Layer_1" xmlns="http://www.w3.org/2000/svg" xmlns:xlink="http://www.w3.org/1999/xlink" x="0px" y="0px"
	 viewBox="0 0 512 512" style="enable-background:new 0 0 512 512;" xml:space="preserve">
<style type="text/css">
	.st0{fill:#3E3286;}
</style>
<g>
	<path class="st0" d="M499.2,222.7L499.2,222.7L290.3,13.8C281.4,4.9,269.6,0,257,0c-12.6,0-24.4,4.9-33.3,13.8L14.9,222.5
		c-0.1,0.1-0.2,0.1-0.2,0.2c-18.3,18.4-18.2,48.2,0.1,66.6c8.4,8.4,19.4,13.2,31.3,13.8c0.5,0,1,0.1,1.5,0.1h8.3v153.7
		c0,30.4,24.8,55.2,55.2,55.2h81.7c8.3,0,15-6.7,15-15V376.5c0-13.9,11.3-25.2,25.2-25.2h48.2c13.9,0,25.2,11.3,25.2,25.2V497
		c0,8.3,6.7,15,15,15H403c30.4,0,55.2-24.8,55.2-55.2V303.1h7.7c12.6,0,24.4-4.9,33.3-13.8C517.5,271,517.5,241.1,499.2,222.7z
		 M478,268.1c-3.2,3.2-7.6,5-12.1,5h-22.7c-8.3,0-15,6.7-15,15v168.7c0,13.9-11.3,25.2-25.2,25.2h-66.7V376.5
		c0-30.4-24.8-55.2-55.2-55.2h-48.2c-30.4,0-55.2,24.8-55.2,55.2V482H111c-13.9,0-25.2-11.3-25.2-25.2V288.1c0-8.3-6.7-15-15-15
		H48.5c-0.2,0-0.5,0-0.7,0c-4.5-0.1-8.7-1.8-11.8-5c-6.7-6.7-6.7-17.5,0-24.2v0l0,0L244.9,35c3.2-3.2,7.6-5,12.1-5
		c4.6,0,8.9,1.8,12.1,5l208.8,208.8l0.1,0.1C484.6,250.6,484.6,261.5,478,268.1z"/>
</g>
<rect x="-243.1" y="-79.8" class="st0" width="66.6" height="56.9"/>
<path class="st0" d="M499.2,289.3c-8.9,8.9-20.7,13.8-33.3,13.8h-7.7v153.7c0,30.4-24.8,55.2-55.2,55.2h-81.7c-8.3,0-15-6.7-15-15
	V376.5c0-13.9-11.3-25.2-25.2-25.2h-48.2c-13.9,0-25.2,11.3-25.2,25.2V497c0,8.3-6.7,15-15,15H111c-30.4,0-55.2-24.8-55.2-55.2
	V303.1h-8.3c-0.5,0-1,0-1.5-0.1c-11.8-0.5-22.9-5.4-31.3-13.8c-18.3-18.3-18.4-48.2-0.1-66.6c0.1-0.1,0.1-0.1,0.2-0.2L223.6,13.8
	C232.5,4.9,244.4,0,257,0c12.6,0,24.4,4.9,33.3,13.8l208.9,208.8l0,0C517.5,241.1,517.5,271,499.2,289.3z"/>
</svg>
