<?xml version="1.0" encoding="utf-8"?>
<!-- Generator: Adobe Illustrator 26.0.1, SVG Export Plug-In . SVG Version: 6.00 Build 0)  -->
<svg version="1.1" id="Layer_1" xmlns="http://www.w3.org/2000/svg" xmlns:xlink="http://www.w3.org/1999/xlink" x="0px" y="0px"
	 viewBox="0 0 512 512" style="enable-background:new 0 0 512 512;" xml:space="preserve">
<style type="text/css">
	.st0{fill:#545454;}
</style>
<g>
	<path class="st0" d="M432,96H80c-26.5,0-48,21.5-48,48v224c0,26.5,21.5,48,48,48h352c26.5,0,48-21.5,48-48V144
		C480,117.5,458.5,96,432,96z M423,128L266.2,258.7c-5.9,4.9-14.5,4.9-20.5,0L89,128H423z M432,384H80c-8.8,0-16-7.2-16-16V148.8
		l161.3,134.4c17.8,14.8,43.6,14.8,61.4,0L448,148.8V368C448,376.8,440.8,384,432,384z"/>
</g>
</svg>
