<?xml version="1.0" encoding="utf-8"?>
<!-- Generator: Adobe Illustrator 26.0.1, SVG Export Plug-In . SVG Version: 6.00 Build 0)  -->
<svg version="1.1" id="Layer_1" xmlns="http://www.w3.org/2000/svg" xmlns:xlink="http://www.w3.org/1999/xlink" x="0px" y="0px"
	 viewBox="0 0 512 512" style="enable-background:new 0 0 512 512;" xml:space="preserve">
<style type="text/css">
	.st0{fill-rule:evenodd;clip-rule:evenodd;fill:#3E3286;}
	.st1{fill:#3E3286;}
	.st2{fill:#342D77;}
	.st3{fill:#FFFFFF;}
</style>
<g>
	<path class="st0" d="M465.8,339.3c-0.7,1.1-2.1,1.5-3.2,0.8s-1.5-2.1-0.8-3.2c1.4-2.4,3.7-4.2,6-4.9l0,0c2.5-0.8,5.2-0.6,7.5,0.7
		c2.3,1.4,3.8,3.6,4.3,6.2c0.5,2.5,0,5.2-1.4,7.7c-2.6,4.4-6.5,7.5-10.8,8.9c-4.4,1.4-9.1,1.1-13.1-1.2c-4-2.4-6.6-6.4-7.4-10.9
		c-0.8-4.4-0.1-9.2,2.5-13.6c0-0.1,0.1-0.2,0.2-0.3c3.8-6.3,9.4-10.7,15.5-12.7h0.1c6.2-2,12.9-1.6,18.6,1.8s9.3,9.1,10.5,15.5
		c1.2,6.3,0,13.5-3.7,19.8c-4.9,8.3-12.3,14.1-20.3,16.7c-8.1,2.7-16.9,2.1-24.3-2.3c-7.2-4.3-11.3-10.7-12.7-18.4
		c-1.5-8.1-0.1-17.5,3.7-27.3c0.5-1.2,1.8-1.8,3-1.3s1.8,1.8,1.3,3c-3.5,9-4.8,17.5-3.5,24.7c1.2,6.4,4.6,11.8,10.5,15.3
		c6.2,3.7,13.6,4.1,20.4,1.9c7-2.3,13.5-7.4,17.8-14.7c3.2-5.3,4.1-11.3,3.1-16.6c-1-5.2-3.8-9.7-8.3-12.4c-4.5-2.6-9.8-3-14.8-1.4
		h-0.1c-5.1,1.7-9.8,5.4-13,10.7l0,0c-2,3.4-2.6,7.2-2,10.5c0.6,3.2,2.4,6.1,5.2,7.7c2.8,1.7,6.1,1.8,9.3,0.8
		c3.2-1.1,6.2-3.4,8.2-6.8c0.9-1.4,1.1-3,0.9-4.4c-0.2-1.3-0.9-2.4-2-3.1c-1.1-0.6-2.4-0.7-3.7-0.3l0,0l0,0
		C467.9,336.8,466.6,337.8,465.8,339.3z"/>
	<path class="st0" d="M452.8,243.3c-0.1-1.5-0.2-3-0.3-4.5c-0.5-5.9-1.3-11.8-2.4-17.7c-2-11-4.9-21.8-8.7-32.4
		c-2.5-7-5.4-13.8-8.7-20.5c-3.7-7.4-7.8-14.6-12.4-21.5c-4.1-6.2-8.7-12.2-13.6-18c-7.2-8.5-15.1-16.4-23.9-23.8
		c-0.1-0.1-0.2-0.1-0.2-0.2c-5.8-4.9-11.8-9.3-18-13.4h0c-6.8-4.5-13.9-8.6-21.1-12.1c-6.7-3.3-13.5-6.2-20.4-8.7h0
		c-10.5-3.8-21.2-6.7-32-8.6c-7.4-1.3-14.9-2.2-22.4-2.7c0,0,0,0,0,0c-8.3-0.5-16.7-0.5-25,0c-1.6,0.1-3.2,0.2-4.8,0.4
		c-5.9,0.5-11.7,1.3-17.5,2.3c-11.1,2-22,4.9-32.6,8.7c-7,2.5-13.8,5.4-20.5,8.7c-0.7,0.4-1.4,0.7-2.1,1.1
		c-6.5,3.3-12.9,7.1-19.1,11.2c-6.2,4.1-12.2,8.6-18,13.5c-8.6,7.2-16.7,15.3-24.1,24.2c-0.1,0.2-0.3,0.3-0.4,0.5c0,0,0,0,0,0
		c-4.8,5.7-9.2,11.6-13.2,17.7c-4.5,6.8-8.5,13.8-12,20.9c-3.3,6.7-6.2,13.5-8.8,20.4v0c-3.8,10.6-6.7,21.4-8.7,32.4
		c-1.3,7.4-2.2,14.9-2.7,22.4c-0.5,8.4-0.5,16.8,0,25.2c0.1,1.5,0.2,3,0.3,4.5c0.5,5.9,1.3,11.8,2.4,17.7c2,11.1,4.9,22,8.8,32.6
		c0,0,0,0,0,0c2.5,6.9,5.4,13.7,8.7,20.4c0,0,0,0,0,0c0,0,0,0,0,0c0.3,0.6,0.7,1.3,1,1.9c3.3,6.5,7,12.9,11.1,19.1
		c1.1,1.7,2.2,3.3,3.4,5c3.2,4.5,6.5,8.8,10.1,13.1c7.2,8.6,15.3,16.7,24.2,24.1c1.1,1,2.3,1.9,3.4,2.8c0,0,0.1,0.1,0.1,0.1
		c4.8,3.9,9.8,7.5,14.9,10.8c6.7,4.4,13.5,8.4,20.5,11.8c6.6,3.3,13.5,6.2,20.3,8.7c10.8,3.9,21.8,6.9,33,8.8
		c7.4,1.3,14.9,2.2,22.4,2.7h0c8.4,0.5,16.8,0.5,25.2-0.1c1.4-0.1,2.8-0.2,4.2-0.3c6-0.5,11.9-1.3,17.8-2.4c11-2,22-4.9,32.6-8.8
		c6.9-2.5,13.8-5.4,20.4-8.8c0.7-0.3,1.3-0.7,2-1c6.7-3.4,13.3-7.3,19.6-11.5h0c6.2-4.1,12.1-8.6,17.9-13.5
		c8.4-7.1,16.4-15.1,23.7-23.8c1-1.1,1.9-2.3,2.8-3.4c0,0,0.1-0.1,0.1-0.1c3.9-4.9,7.5-9.8,10.8-14.9c1.9-2.9,3.8-5.9,5.5-8.9
		c2.3-3.9,4.4-7.8,6.4-11.8c3.3-6.7,6.2-13.5,8.8-20.4v0c3.9-10.6,6.8-21.5,8.7-32.5c0,0,0,0,0,0c1.3-7.4,2.2-14.9,2.7-22.4
		c0,0,0,0,0,0C453.4,260,453.4,251.6,452.8,243.3z M422.7,352.4c-4.7,8.1-10.1,16-16.1,23.6c-0.9,1.2-1.9,2.4-2.9,3.5
		c-0.1,0.1-0.2,0.2-0.2,0.3c-34.2,40.7-81.6,63.7-130.7,68c-5.6,0.5-11.3,0.7-16.9,0.7c-42.1,0-84.5-13.7-119.8-41.9
		c-1.2-1-2.4-1.9-3.6-2.9c-0.1-0.1-0.2-0.2-0.3-0.2c-13.1-11-24.3-23.3-33.7-36.7c-19.8-28.2-31.4-60.7-34.3-94
		c-0.5-5.6-0.7-11.3-0.7-16.9c0-42.7,14.1-85.7,43.1-121.3c0.4-0.5,0.8-1.1,1.3-1.6c0-0.1,0.1-0.1,0.1-0.2c0.2-0.2,0.3-0.4,0.5-0.6
		c34.2-40.7,81.6-63.7,130.7-68c5.6-0.5,11.3-0.7,16.9-0.7c43.7,0,87.6,14.8,123.7,45c40.7,34.2,63.7,81.6,68,130.7
		c0.5,5.6,0.7,11.3,0.7,16.9C448.5,289.2,440,322.5,422.7,352.4z"/>
	<path class="st0" d="M288.8,37.4c-1.3,0-2.3-1.1-2.3-2.3c0-1.3,1.1-2.3,2.3-2.3l0,0h0.2c1.6-0.1,3-0.6,4.1-1.6
		c1-0.9,1.6-2.1,1.6-3.3l0,0l0,0l0,0l0,0v-0.1c-0.1-1.2-0.7-2.3-1.6-3.1c-1.1-0.9-2.6-1.5-4.3-1.5c-3.9,0-7.5,1.5-10,3.7
		s-4,5.2-3.9,8.4c0,3.3,1.6,6.2,4.1,8.3c2.6,2.2,6.2,3.6,10.1,3.5c6.2-0.1,11.8-2.3,15.8-5.9c3.9-3.5,6.3-8.3,6.3-13.5l0,0l0,0l0,0
		l0,0v-0.2c-0.1-5.2-2.6-9.8-6.5-13.2c-4.1-3.5-9.7-5.6-15.9-5.6l0,0l0,0l0,0l0,0h-0.2c-8.4,0.1-15.9,3.2-21.4,8
		c-5.4,4.8-8.7,11.4-8.6,18.6c0.1,6.9,3,12.5,8,16.7c5.5,4.8,13.6,7.9,23.2,9.3c1.3,0.2,2.2,1.4,2,2.7c-0.2,1.3-1.4,2.2-2.7,2
		c-10.4-1.6-19.3-5.1-25.5-10.4c-6-5.1-9.5-11.9-9.6-20.2c-0.1-8.6,3.8-16.5,10.2-22.2c6.2-5.6,14.9-9.1,24.4-9.2c0.1,0,0.2,0,0.3,0
		l0,0l0,0c7.4-0.1,14.1,2.5,19,6.7s8,10.1,8.2,16.7c0,0.1,0,0.2,0,0.3l0,0l0,0c0.1,6.6-2.9,12.7-7.8,17c-4.8,4.3-11.5,7-18.9,7.1
		c-5.1,0.1-9.8-1.7-13.2-4.6c-3.5-3-5.7-7.2-5.7-11.9s2-8.9,5.5-12c3.3-3,8-4.9,13.1-4.9c2.8,0,5.4,1,7.4,2.6c1.9,1.6,3.2,4,3.3,6.5
		c0,0.1,0,0.2,0,0.3l0,0l0,0c0,2.7-1.2,5.1-3.1,6.8c-1.8,1.6-4.3,2.7-7.1,2.8C289,37.4,288.9,37.4,288.8,37.4L288.8,37.4z"/>
	<path class="st0" d="M223.2,32.7c1.3,0,2.3,1.1,2.3,2.3c0,1.3-1.1,2.3-2.3,2.3c-2.8,0-5.4-1.1-7.3-2.8c-2-1.7-3.2-4.2-3.1-6.9
		c0-2.7,1.3-5.1,3.3-6.8c1.9-1.6,4.5-2.6,7.4-2.6c5.1,0.1,9.7,1.9,13.1,4.9c3.4,3.1,5.5,7.3,5.5,12s-2.2,8.9-5.7,11.9
		c-3.4,2.9-8.1,4.7-13.2,4.6c-7.4-0.1-14.1-2.8-18.9-7.1c-4.9-4.4-7.9-10.4-7.8-17.1c0.1-6.7,3.2-12.6,8.2-16.9
		c4.9-4.2,11.6-6.8,19-6.7c9.6,0.1,18.4,3.6,24.6,9.2c6.4,5.7,10.3,13.5,10.2,22.2c-0.1,8.4-3.6,15.1-9.6,20.2
		c-6.2,5.3-15.1,8.8-25.5,10.4c-1.3,0.2-2.5-0.7-2.7-2c-0.2-1.3,0.7-2.5,2-2.7c9.5-1.4,17.6-4.6,23.2-9.3c5-4.2,7.9-9.8,8-16.7
		c0.1-7.2-3.2-13.8-8.6-18.6c-5.5-4.9-13.1-8-21.6-8.1c-6.2-0.1-11.8,2.1-15.9,5.6c-4,3.4-6.5,8.2-6.6,13.4s2.3,10,6.3,13.5
		c4,3.6,9.6,5.8,15.8,5.9c3.9,0,7.5-1.3,10.1-3.5c2.5-2.1,4.1-5.1,4.1-8.3c0-3.3-1.5-6.3-3.9-8.4c-2.5-2.3-6.1-3.7-10-3.7
		c-1.7,0-3.2,0.6-4.3,1.5c-1,0.9-1.6,2-1.6,3.3s0.6,2.5,1.6,3.3C220,32.1,221.5,32.7,223.2,32.7z"/>
	<path class="st0" d="M393.7,83.1c-1.1-0.6-1.5-2.1-0.9-3.2s2.1-1.5,3.2-0.9c1.5,0.8,3.1,1.1,4.5,0.8c1.3-0.3,2.4-1,3-2.1
		s0.7-2.4,0.2-3.7c-0.5-1.3-1.5-2.5-2.9-3.4c-0.1,0-0.1-0.1-0.2-0.1c-3.4-1.9-7.2-2.4-10.5-1.7c-3.2,0.7-6,2.5-7.6,5.3l0,0
		c-1.6,2.8-1.7,6.2-0.6,9.3c1.1,3.2,3.5,6.2,7,8.1l0,0c5.4,3,11.4,3.9,16.6,2.8c5.1-1.1,9.6-4,12.2-8.6l0,0c2.6-4.6,2.8-9.9,1-14.9
		c-1.8-5.1-5.6-9.7-11-12.8c-7.4-4.2-15.5-5.3-22.7-3.8c-7.1,1.5-13.2,5.5-16.8,11.8c-3.4,6-3.6,12.3-1.5,18.5
		c2.4,6.9,7.9,13.7,15.4,19.7c1,0.8,1.2,2.3,0.4,3.3c-0.8,1-2.3,1.2-3.3,0.4c-8.2-6.5-14.2-14-16.9-21.7c-2.6-7.4-2.3-15,1.8-22.3
		c4.2-7.5,11.5-12.4,19.9-14.1c8.3-1.7,17.6-0.4,26,4.3c6.4,3.6,11,9.2,13.1,15.3c2.2,6.2,1.9,12.9-1.4,18.7l0,0
		c-3.3,5.8-8.9,9.5-15.3,10.9c-6.3,1.3-13.4,0.3-19.8-3.2c-0.1,0-0.2-0.1-0.2-0.1c-4.4-2.5-7.5-6.4-9-10.5c-1.5-4.3-1.3-9,1-13.1
		l0,0c2.3-4.1,6.2-6.7,10.7-7.6c4.4-0.9,9.3-0.2,13.7,2.3l0,0c2.5,1.4,4.2,3.6,5.1,5.9c0.9,2.5,0.8,5.2-0.6,7.5
		c-1.3,2.3-3.6,3.8-6.1,4.4C399,84.9,396.2,84.5,393.7,83.1z"/>
	<path class="st0" d="M339.3,46.2c1.1,0.7,1.5,2.1,0.8,3.2c-0.7,1.1-2.1,1.5-3.2,0.8c-2.5-1.4-4.2-3.7-5-6c-0.8-2.5-0.6-5.2,0.7-7.5
		v-0.1v-0.1l0,0l0,0l0,0c1.4-2.2,3.6-3.6,6.1-4.1l0,0c2.5-0.5,5.2,0,7.7,1.4h0.1h0.1l0,0l0,0l0,0c4.3,2.6,7.3,6.5,8.7,10.7l0,0
		c1.4,4.4,1.1,9.1-1.2,13.1v0.1c-2.4,4-6.3,6.5-10.9,7.3c-4.4,0.8-9.3,0-13.7-2.6l0,0c-6.3-3.8-10.8-9.4-12.8-15.6
		c-2.1-6.2-1.6-13,1.8-18.7s9.1-9.3,15.5-10.5s13.5,0,19.8,3.7c8.3,4.9,14.1,12.3,16.7,20.3l0,0c2.7,8.1,2.1,16.8-2.3,24.3
		c-4.3,7.2-10.7,11.3-18.4,12.7c-8.1,1.5-17.5,0.1-27.3-3.7c-1.2-0.5-1.8-1.8-1.3-3s1.8-1.8,3-1.3c9,3.5,17.5,4.8,24.7,3.5
		c6.4-1.2,11.8-4.6,15.3-10.5c3.7-6.2,4.1-13.6,1.9-20.4l0,0l0,0c-2.3-7-7.4-13.4-14.7-17.8c-5.3-3.2-11.3-4.1-16.6-3.1
		c-5.2,1-9.7,3.8-12.4,8.3c-2.7,4.5-3,9.9-1.3,14.9c1.7,5.1,5.4,9.8,10.7,13l0,0c3.4,2,7.2,2.6,10.5,2c3.2-0.6,6-2.3,7.7-5.1
		c0-0.1,0.1-0.2,0.1-0.2c1.6-2.8,1.8-6.1,0.8-9.1l0,0l0,0c-1-3.2-3.4-6.2-6.7-8.2c-0.1,0-0.1-0.1-0.2-0.1l0,0
		c-1.4-0.8-3-1.1-4.3-0.8l0,0l0,0c-1.2,0.2-2.3,0.9-3,1.9c0,0.1-0.1,0.1-0.1,0.2c-0.6,1.1-0.7,2.4-0.3,3.6
		C336.8,44.1,337.8,45.4,339.3,46.2z"/>
	<path class="st0" d="M461.8,175.1c-0.7-1.1-0.3-2.5,0.8-3.2c1.1-0.7,2.5-0.3,3.2,0.8c0.9,1.4,2.1,2.4,3.5,2.9l0,0l0,0
		c1.2,0.4,2.6,0.3,3.7-0.3s1.8-1.8,2-3.1c0.3-1.4,0-3-0.9-4.4c-2-3.4-5-5.7-8.2-6.8c-3.1-1-6.5-0.8-9.3,0.8
		c-2.8,1.7-4.6,4.5-5.2,7.7c-0.6,3.3,0,7.1,2,10.5l0,0c3.2,5.3,7.9,9,13,10.7h0.1c5,1.6,10.3,1.3,14.8-1.4s7.4-7.2,8.3-12.4
		c1-5.3,0-11.2-3.1-16.6c-4.3-7.3-10.8-12.4-17.8-14.7c-6.9-2.3-14.2-1.8-20.4,1.9c-5.9,3.5-9.3,8.9-10.5,15.3
		c-1.3,7.2,0,15.8,3.5,24.7c0.5,1.2-0.1,2.6-1.3,3c-1.2,0.5-2.6-0.1-3-1.3c-3.8-9.8-5.2-19.2-3.7-27.3c1.4-7.7,5.5-14.2,12.7-18.4
		c7.4-4.4,16.2-4.9,24.3-2.3c8,2.6,15.4,8.4,20.3,16.7c3.8,6.4,4.9,13.5,3.7,19.8c-1.2,6.5-4.8,12.1-10.5,15.5s-12.4,3.8-18.6,1.8
		h-0.1c-6.1-2-11.7-6.4-15.5-12.7c-0.1-0.1-0.1-0.2-0.2-0.3c-2.5-4.4-3.3-9.2-2.5-13.6c0.8-4.5,3.4-8.5,7.4-10.9s8.7-2.7,13.1-1.2
		c4.3,1.4,8.2,4.5,10.8,8.9c1.4,2.4,1.9,5.2,1.4,7.7c-0.5,2.6-1.9,4.9-4.2,6.2c-2.3,1.4-5,1.5-7.5,0.7l0,0
		C465.4,179.3,463.2,177.6,461.8,175.1z"/>
	<path class="st0" d="M433,116c0.6,1.1,0.2,2.6-0.9,3.2s-2.5,0.2-3.2-0.9c-1.4-2.5-1.8-5.2-1.3-7.7c0.5-2.6,2-4.8,4.4-6.1
		c2.3-1.3,5-1.4,7.5-0.6c2.4,0.8,4.5,2.6,5.9,5.1c2.5,4.4,3.2,9.4,2.3,13.8c-0.9,4.5-3.6,8.4-7.6,10.7H440
		c-4.1,2.3-8.7,2.5-13.1,0.9c-4.2-1.5-8-4.6-10.5-9c-0.1-0.1-0.1-0.2-0.1-0.3c-3.6-6.4-4.5-13.5-3.2-19.8
		c1.3-6.4,5.1-12.1,10.9-15.3c5.8-3.3,12.5-3.5,18.7-1.4c6.1,2.1,11.7,6.7,15.3,13.1l0,0c4.7,8.4,6,17.7,4.3,25.9
		c-1.7,8.4-6.6,15.7-14.1,19.9c-7.3,4.1-14.9,4.4-22.3,1.8c-7.7-2.7-15.2-8.7-21.7-16.9c-0.8-1-0.6-2.5,0.4-3.3s2.5-0.6,3.3,0.4
		c6,7.5,12.8,12.9,19.7,15.4c6.2,2.2,12.5,1.9,18.5-1.5c6.3-3.5,10.4-9.7,11.8-16.8c1.5-7.2,0.4-15.3-3.8-22.6l-0.1-0.2
		c-3-5.4-7.7-9.1-12.7-10.9c-5-1.7-10.3-1.5-14.9,1c-4.6,2.6-7.5,7-8.6,12.2s-0.2,11.2,2.8,16.6l0,0c1.9,3.4,4.9,5.9,8.1,7
		c3.1,1.1,6.4,1,9.2-0.6c0.1,0,0.1-0.1,0.2-0.1c2.8-1.6,4.6-4.4,5.3-7.6c0.7-3.3,0.2-7.1-1.8-10.6c-0.8-1.5-2.1-2.5-3.4-3
		c-1.2-0.4-2.6-0.4-3.7,0.2s-1.8,1.7-2.1,3C431.9,112.9,432.2,114.5,433,116z"/>
	<path class="st0" d="M474.6,288.8c0-1.3,1-2.3,2.3-2.4c1.3,0,2.3,1,2.4,2.3c0,1.7,0.6,3.2,1.6,4.2c0.9,1,2.1,1.6,3.3,1.6
		c1.3,0,2.4-0.6,3.3-1.6c0.9-1.1,1.5-2.6,1.5-4.3l0,0l0,0l0,0l0,0v-0.2c-0.1-3.9-1.5-7.3-3.7-9.8s-5.2-4-8.4-3.9l0,0l0,0l0,0l0,0
		l0,0h-0.2c-3.2,0.1-6.1,1.6-8.2,4.1c-2.2,2.6-3.6,6.2-3.5,10.1l0,0l0,0l0,0l0,0l0,0v0.2c0.1,6.1,2.3,11.6,5.9,15.6
		c3.5,3.9,8.3,6.3,13.5,6.3l0,0l0,0l0,0l0,0h0.2c5.2-0.1,9.8-2.6,13.2-6.5c3.5-4.1,5.6-9.7,5.6-15.9c-0.1-8.5-3.2-16.1-8.1-21.6
		c-4.8-5.4-11.4-8.7-18.6-8.6c-6.9,0.1-12.5,3-16.7,8c-4.8,5.5-7.9,13.6-9.3,23.2c-0.2,1.3-1.4,2.2-2.7,2c-1.3-0.2-2.2-1.4-2-2.7
		c1.6-10.4,5.1-19.3,10.4-25.5c5.1-6,11.9-9.5,20.2-9.6c8.6-0.1,16.5,3.8,22.2,10.2c5.6,6.3,9.1,15,9.2,24.6
		c0.1,7.4-2.5,14.1-6.7,19s-10.1,8-16.7,8.2c-0.1,0-0.2,0-0.2,0l0,0l0,0c-6.6,0.1-12.7-2.9-17-7.8c-4.3-4.8-6.9-11.3-7.1-18.6
		c0-0.1,0-0.2,0-0.2l0,0l0,0l0,0c0-5.1,1.7-9.8,4.6-13.2c2.9-3.4,7-5.6,11.6-5.7c0.1,0,0.2,0,0.2,0l0,0l0,0l0,0
		c4.7,0,8.9,2.1,11.9,5.5c2.9,3.3,4.8,7.8,4.9,12.9c0,0.1,0,0.2,0,0.2l0,0l0,0c0,2.8-1,5.4-2.6,7.3c-1.7,2-4.1,3.2-6.8,3.3
		c-2.7,0-5.1-1.2-6.9-3.1C475.7,294.3,474.7,291.7,474.6,288.8z"/>
	<path class="st0" d="M479.3,223.2c0,1.3-1,2.3-2.3,2.3s-2.3-1.1-2.3-2.3l0,0c0-0.1,0-0.2,0-0.3c0.1-2.8,1.1-5.3,2.8-7.1
		c1.7-2,4.2-3.2,6.9-3.1c2.7,0,5.1,1.3,6.8,3.3c1.6,1.9,2.6,4.5,2.6,7.3l0,0l0,0c0,0.1,0,0.2,0,0.2c-0.1,5-2,9.6-4.9,12.9
		c-3.1,3.4-7.3,5.5-11.9,5.5l0,0l0,0l0,0c-0.1,0-0.2,0-0.3,0c-4.6-0.1-8.7-2.3-11.6-5.7s-4.7-8-4.6-13.2l0,0l0,0l0,0
		c0-0.1,0-0.2,0-0.2c0.1-7.3,2.8-13.9,7.1-18.6c4.4-4.9,10.4-7.9,17-7.8l0,0l0,0c0.1,0,0.2,0,0.2,0c6.6,0.1,12.4,3.2,16.7,8.2
		c4.2,4.9,6.8,11.6,6.7,19c-0.1,9.6-3.6,18.4-9.2,24.6c-5.7,6.4-13.5,10.3-22.1,10.2c-8.4-0.1-15.1-3.6-20.2-9.6
		c-5.3-6.2-8.8-15.1-10.4-25.5c-0.2-1.3,0.7-2.5,2-2.7s2.5,0.7,2.7,2c1.4,9.5,4.6,17.6,9.3,23.2c4.2,5,9.8,7.9,16.7,8
		c7.2,0.1,13.8-3.2,18.6-8.6c4.9-5.5,8-13.1,8.1-21.6c0.1-6.2-2.1-11.8-5.6-15.9c-3.4-3.9-8-6.4-13.2-6.6h-0.2l0,0l0,0l0,0l0,0
		c-5.2-0.1-10,2.3-13.5,6.3s-5.8,9.5-5.9,15.6v0.2l0,0l0,0l0,0l0,0l0,0c0,3.9,1.3,7.5,3.5,10.1c2.1,2.5,5,4,8.2,4.1h0.2l0,0l0,0l0,0
		l0,0l0,0c3.3,0,6.3-1.5,8.4-3.9c2.2-2.5,3.6-6,3.7-9.8v-0.2l0,0l0,0l0,0l0,0c0-1.7-0.6-3.2-1.5-4.3c-0.9-1-2-1.6-3.3-1.6
		s-2.5,0.6-3.3,1.6c-0.9,1-1.5,2.5-1.6,4.1L479.3,223.2L479.3,223.2z"/>
	<g>
		<path class="st0" d="M420.1,389.5c0.2-0.1,0.3-0.3,0.4-0.5L420.1,389.5z M462.1,383.9c-0.9-4.4-2.6-8.4-5.1-11.9
			c-1.9-2.7-4.3-5-7.1-6.9c0,0,0,0,0,0c-0.6-0.4-1.2-0.8-1.8-1.1c-0.3-0.2-0.7-0.4-1-0.5c0,0,0,0,0,0c-3.1-1.6-6.2-2.5-9.3-2.8
			c-2.2-0.2-4.3-0.2-6.5,0.2c-1.8,0.3-3.6,0.7-5.5,1.4c-1.6,0.6-3.3,1.3-4.9,2.2c-5,2.7-9.8,6.6-14.2,11.6c-0.9,1-1.8,2-2.6,3.1
			c-0.1,0.1-0.2,0.3-0.2,0.4c-0.5,1-0.2,2.2,0.7,2.9c1,0.8,2.5,0.6,3.3-0.4c0.7-0.9,1.5-1.8,2.2-2.6c0,0,0.1-0.1,0.1-0.1
			c5.4-6.1,11.4-10.6,17.4-12.7c2.2-0.8,4.5-1.2,6.7-1.3c3.6-0.2,7.1,0.5,10.5,2.2c0,0,0,0,0,0c0.4,0.2,0.8,0.4,1.2,0.6
			c0.6,0.3,1.1,0.7,1.7,1.1c0,0,0,0,0,0c5.3,3.7,8.7,9.3,10.1,15.7c1.5,7.1,0.3,15.2-3.8,22.6l-0.1,0.2c-3,5.3-7.7,9.1-12.7,10.9
			c-5,1.8-10.3,1.6-14.9-1c-4.6-2.6-7.5-7.1-8.6-12.2c-0.3-1.4-0.4-2.9-0.4-4.4c0-4,1.1-8.3,3.2-12.2c1.9-3.5,4.9-5.9,8.1-7
			c3.1-1.1,6.4-1,9.2,0.6c0.1,0,0.1,0.1,0.2,0.1c2.8,1.7,4.6,4.4,5.3,7.6c0.2,0.9,0.3,1.9,0.3,2.8c0,2.6-0.7,5.3-2.1,7.8v0.1
			c-0.8,1.4-2.1,2.4-3.4,2.9c-0.6,0.2-1.1,0.3-1.7,0.3c-0.7,0-1.4-0.2-2-0.5c-1.1-0.6-1.8-1.7-2.1-3c-0.3-1.4,0-3,0.8-4.5
			c0.6-1.1,0.2-2.6-0.9-3.2c-1.1-0.6-2.6-0.2-3.2,0.9c-1.4,2.5-1.8,5.3-1.5,7.1c0.5,2.6,1.9,4.8,4.2,6.1c0.1,0.1,0.2,0.2,0.3,0.2
			c2.3,1.3,5,1.4,7.4,0.5c2.3-0.9,4.5-2.6,5.9-5.1c2.5-4.5,3.2-9.4,2.3-13.8c-0.9-4.5-3.5-8.4-7.6-10.7h-0.1c-3.8-2-8-2.3-12-1.2
			c-0.4,0.1-0.7,0.2-1.1,0.3c-4.1,1.5-8,4.6-10.5,9c0,0.1-0.1,0.2-0.1,0.3c-2,3.7-3.2,7.6-3.6,11.5c-0.3,2.8-0.2,5.6,0.4,8.3
			c1.4,6.4,5.1,12,10.9,15.3s12.5,3.6,18.7,1.4c3-1.1,6-2.7,8.6-4.9c2.6-2.2,4.9-5,6.7-8.2C462.5,401.4,463.8,392.1,462.1,383.9z"/>
	</g>
	<path class="st0" d="M370.8,470.2c-2.6,8-8.4,15.4-16.7,20.3c-6.4,3.8-13.5,4.9-19.8,3.7c-6.5-1.2-12.1-4.8-15.5-10.5
		c-3.4-5.7-3.8-12.4-1.8-18.6V465c0.4-1.2,0.9-2.4,1.4-3.5c2.3-4.7,6.2-8.9,11.3-12c0.1-0.1,0.2-0.1,0.3-0.2
		c4.4-2.5,9.2-3.3,13.6-2.5c2,0.4,3.8,1,5.5,2c2.2,1.3,4,3.1,5.4,5.4c2.4,4,2.7,8.7,1.2,13.1c-1.4,4.3-4.5,8.2-8.9,10.8
		c-2.4,1.4-5.2,1.9-7.7,1.4c-2.6-0.5-4.9-1.9-6.2-4.2c-1.4-2.3-1.5-5-0.7-7.5c0.2-1.2,0.8-2.3,1.6-3.4c0.8-1,1.9-2,3.1-2.7
		c1.1-0.7,2.5-0.3,3.2,0.8c0.7,1.1,0.3,2.5-0.8,3.2c-1.4,0.9-2.4,2.1-2.9,3.5c-0.2,0.5-0.2,1-0.2,1.5c0,0.8,0.2,1.5,0.5,2.2
		c0.7,1.1,1.8,1.8,3.1,2c1.4,0.3,3,0,4.4-0.9c3.4-2,5.7-5,6.8-8.2c1-3.1,0.8-6.5-0.8-9.3c-1.5-2.5-3.9-4.2-6.6-4.9h0
		c-0.4-0.1-0.7-0.2-1.1-0.3c-3.3-0.6-7.1,0-10.5,2c-2.7,1.6-4.9,3.6-6.7,5.8c0,0.1-0.1,0.1-0.1,0.2c-1.7,2.2-3,4.5-3.9,7v0.1
		c-1.6,5-1.3,10.3,1.4,14.8s7.2,7.4,12.4,8.3c5.3,1,11.2,0,16.6-3.1c7.3-4.3,12.4-10.8,14.7-17.8c2.3-6.9,1.8-14.2-1.9-20.4
		c-1.2-2.1-2.8-3.9-4.5-5.4c-3-2.7-6.7-4.3-10.8-5.1c-7.2-1.3-15.8,0-24.7,3.5c-0.3,0.1-0.7,0.2-1,0.2c-0.9,0-1.7-0.6-2-1.5
		c-0.5-1.2,0.1-2.6,1.3-3c7.4-2.9,14.6-4.4,21.1-4.3c2.1,0,4.2,0.2,6.2,0.6c4.1,0.8,7.9,2.3,11.2,4.6c1,0.7,2,1.6,2.9,2.5
		c1.6,1.6,3.1,3.5,4.3,5.6c2,3.4,3.2,7.2,3.7,11C372.7,461.3,372.2,465.9,370.8,470.2z"/>
	<path class="st0" d="M423.5,442.8c-2.1,6.1-6.7,11.7-13.1,15.3c-6.1,3.4-12.6,5-18.8,5c-2.4,0-4.8-0.2-7.1-0.7
		c-4.5-0.9-8.7-2.8-12.3-5.5c-3.1-2.3-5.7-5.2-7.6-8.6c-1.2-2.2-2.1-4.4-2.7-6.6c-0.3-1.3-0.6-2.6-0.7-3.8c-0.4-4,0.2-7.9,1.5-11.8
		c0.7-2,1.6-3.9,2.7-5.9h0c3.2-5.6,8.1-11,14.2-15.9c1-0.8,2.5-0.6,3.3,0.4c0.5,0.6,0.6,1.3,0.4,2c-0.1,0.5-0.4,0.9-0.8,1.3
		c-7.5,6-12.9,12.8-15.4,19.7c-1.4,3.8-1.8,7.7-1.1,11.5c0.4,2.4,1.3,4.7,2.6,7c3.5,6.3,9.7,10.3,16.8,11.8
		c7.2,1.5,15.3,0.4,22.6-3.8l0.2-0.1c5.4-3,9.1-7.7,10.9-12.7c1.7-5,1.5-10.3-1-14.9c-2.6-4.6-7-7.5-12.2-8.6
		c-4.4-0.9-9.3-0.5-14,1.5l0,0c-0.9,0.4-1.7,0.8-2.6,1.3c-1.7,1-3.2,2.2-4.4,3.6c-0.7,0.8-1.3,1.6-1.7,2.5l0,0
		c-0.4,0.7-0.7,1.3-0.9,2c-1.1,3.1-1,6.4,0.6,9.2c0,0.1,0.1,0.1,0.1,0.2c1.6,2.8,4.4,4.6,7.6,5.3c3.3,0.7,7.1,0.2,10.5-1.8h0.1
		c1.4-0.8,2.4-2.1,2.9-3.4c0.4-1.2,0.4-2.5-0.2-3.7c-0.6-1.1-1.7-1.8-3-2.1c-1.9-0.5-3.5-0.2-5,0.6c-1.1,0.6-2.5,0.2-3.2-0.9
		c-0.6-1.1-0.2-2.5,0.9-3.2c2.5-1.4,5.2-1.8,7.7-1.3s4.7,2,6.1,4.2c0.1,0.1,0.1,0.2,0.2,0.3c1.3,2.3,1.4,5,0.5,7.4
		c-0.8,2.4-2.6,4.5-5.1,5.9c-3.2,1.8-6.7,2.7-10,2.7c-1.3,0-2.5-0.1-3.8-0.4c-4.5-0.9-8.4-3.6-10.7-7.6c-1.3-2.3-1.9-4.8-1.9-7.4
		c0-0.3,0-0.6,0-1c0.1-1.6,0.4-3.2,1-4.8c1.5-4.2,4.6-8,9-10.5c0.1-0.1,0.2-0.1,0.3-0.1c3.8-2.2,7.9-3.3,11.9-3.7
		c2.7-0.2,5.3-0.1,7.9,0.5c6.4,1.3,12,5.1,15.3,10.9C425.4,429.9,425.6,436.6,423.5,442.8z"/>
	<path class="st0" d="M258.2,476.5c0,0.7,0,1.4-0.1,2.1c0,0,0,0,0,0c0,0,0,0,0,0.1c-0.2,3.4-1,6.6-2.4,9.6
		c-1.8,3.9-4.4,7.5-7.7,10.4c-6.3,5.6-15,9.1-24.6,9.2c-7.4,0.1-14.1-2.5-19-6.7c-5-4.3-8.1-10.2-8.2-16.9
		c-0.1-6.6,2.9-12.7,7.8-17.1c1.1-1,2.3-1.9,3.5-2.7h0c4.3-2.7,9.4-4.3,15-4.4c0.1,0,0.2,0,0.2,0c2.5,0,5,0.4,7.2,1.2
		c2.2,0.8,4.3,1.9,6,3.4c1.8,1.5,3.2,3.3,4.2,5.4c0.9,1.9,1.5,4,1.5,6.2v0.3c0,2.4-0.5,4.6-1.5,6.6c-0.9,2-2.3,3.8-4,5.3
		c-3.3,2.9-7.8,4.8-12.9,4.9c-0.1,0-0.2,0-0.2,0c-1.4,0-2.8-0.2-4-0.7c-1.2-0.5-2.4-1.1-3.3-1.9c-2-1.7-3.2-4.1-3.3-6.8
		c0-2.7,1.2-5.1,3.1-6.9c2.1-1.4,4.7-2.4,7.6-2.5c1.3,0,2.3,1,2.3,2.3c0,1.3-1,2.3-2.3,2.3c-1.7,0-3.2,0.6-4.2,1.6
		c-1,0.9-1.6,2.1-1.6,3.3c0,1.3,0.6,2.4,1.6,3.3c1.1,0.9,2.6,1.5,4.3,1.5h0.2c3.9-0.1,7.3-1.5,9.8-3.7s4-5.2,3.9-8.4v-0.2
		c-0.1-2.7-1.2-5.2-3-7.1h0c-0.3-0.4-0.7-0.7-1.1-1c-2.6-2.2-6.2-3.6-10.1-3.5h-0.2c-2.8,0-5.4,0.5-7.8,1.4h0
		c-2.9,1-5.6,2.6-7.8,4.5c-3.9,3.5-6.3,8.3-6.3,13.5c0.1,5.2,2.6,10,6.6,13.4c4.1,3.5,9.7,5.6,15.9,5.6c8.5-0.1,16.1-3.2,21.6-8.1
		c4.9-4.4,8.1-10.2,8.5-16.6c0.1-0.7,0.1-1.3,0.1-2c0-0.3,0-0.6,0-0.9c0,0,0,0,0,0c0,0,0,0,0,0c-0.1-1.7-0.3-3.3-0.8-4.9
		c-1.2-4.3-3.7-7.9-7.2-10.9c-5.6-4.8-13.6-7.9-23.2-9.3c-0.4,0-0.7-0.2-1-0.4c-0.7-0.5-1.2-1.4-1-2.3c0.2-1.3,1.4-2.2,2.7-2
		c8,1.2,15.1,3.6,20.7,7h0c1.7,1,3.3,2.2,4.8,3.4c3.2,2.8,5.8,6,7.4,9.8v0c0.7,1.5,1.2,3.1,1.5,4.8c0.4,1.6,0.6,3.2,0.6,4.9
		C258.2,476,258.2,476.2,258.2,476.5z"/>
	<path class="st0" d="M315.5,484.8c-0.1,6.7-3.2,12.6-8.2,16.9c-4.9,4.2-11.6,6.8-19,6.7c-0.1,0-0.2,0-0.2,0
		c-9.6-0.2-18.2-3.7-24.4-9.2c-3.5-3.1-6.2-6.8-8-10.9c-1.3-3-2.1-6.3-2.2-9.7c0-0.5,0-1,0-1.5c0-0.1,0-0.2,0-0.2
		c0-0.4,0-0.8,0.1-1.2c0,0,0,0,0,0c0,0,0,0,0,0c0.1-1.7,0.3-3.3,0.7-4.9c0.4-1.7,1-3.2,1.7-4.8v0c1.6-3.5,4-6.5,7.1-9.1
		c1.8-1.5,3.8-2.9,5.9-4.1c5.5-3.1,12.1-5.2,19.6-6.3c1.3-0.2,2.5,0.7,2.7,2c0.1,0.6,0,1.2-0.3,1.6c-0.4,0.6-0.9,1-1.7,1.1
		c-9.5,1.4-17.6,4.6-23.2,9.3c-3.3,2.8-5.7,6.3-7,10.3c-0.5,1.5-0.8,3.2-1,4.9c0,0.4-0.1,0.8-0.1,1.3c0,0.1,0,0.1,0,0.2v0.3
		c0,0.3,0,0.7,0,1c0,0,0,0,0,0.1c0.3,6.6,3.5,12.7,8.6,17.1c5.4,4.9,13,7.9,21.4,8.1h0.6c6,0,11.5-2.2,15.5-5.6
		c4-3.4,6.5-8.2,6.6-13.4c0.1-5.2-2.4-10-6.3-13.5c-2.1-1.9-4.6-3.4-7.5-4.4c-2.5-0.9-5.3-1.5-8.1-1.5h-0.2c-2,0-3.8,0.3-5.5,0.9
		c-1.7,0.6-3.3,1.5-4.6,2.6c-0.3,0.3-0.7,0.6-1,0.9h0c-1.9,2-3,4.5-3.1,7.3v0.2c0,1.6,0.4,3.2,1,4.6c0.7,1.4,1.7,2.7,2.9,3.8
		c2.5,2.2,6,3.6,9.8,3.7h0.2c1.7,0,3.2-0.6,4.3-1.5c1-0.9,1.6-2,1.6-3.3s-0.6-2.5-1.6-3.3c-0.7-1.5-2.2-2.1-3.9-2.1
		c-1.3,0-2.3-1.1-2.3-2.3c0-1.3,1.1-2.3,2.3-2.3c2.9,0,5.4,1.1,7.3,2.8c2,1.8,3.2,4.2,3.1,6.9c0,2.7-1.3,5.1-3.3,6.8
		c-1.9,1.6-4.5,2.6-7.3,2.6c-0.1,0-0.2,0-0.2,0c-5-0.1-9.6-2-12.9-4.9c-3.4-3.1-5.5-7.3-5.5-11.9c0-0.1,0-0.2,0-0.2
		c0-2.3,0.6-4.4,1.6-6.4c1-2,2.4-3.8,4.1-5.2c3.4-2.9,8.1-4.7,13.2-4.6c0.1,0,0.2,0,0.2,0c5.9,0.1,11.2,1.8,15.6,4.7
		c1.1,0.7,2.1,1.5,3,2.4C312.6,472.1,315.6,478.1,315.5,484.8z"/>
	<g>
		<path class="st0" d="M149.8,425.8c-0.6-1.7-1.3-3.4-2.2-5c-2.6-5-6.6-9.7-11.5-14.1c-1-0.9-2.1-1.8-3.2-2.7
			c-0.1-0.1-0.3-0.2-0.4-0.2c-1-0.5-2.2-0.2-2.9,0.7c-0.8,1-0.6,2.5,0.4,3.3c0.9,0.7,1.8,1.5,2.6,2.2c0,0,0.1,0.1,0.1,0.1
			c6.1,5.4,10.6,11.4,12.7,17.4c1.1,3.3,1.6,6.6,1.3,9.8c-0.2,2.6-1,5.1-2.2,7.7c-0.2,0.3-0.3,0.7-0.5,1c-0.3,0.5-0.6,0.9-0.9,1.4
			c0,0,0,0,0,0c-3.7,5.5-9.4,9-15.9,10.4c-7.1,1.5-15.2,0.3-22.6-3.8l-0.2-0.1c-5.3-3-9.1-7.7-10.9-12.7c-1.8-5-1.6-10.3,1-14.9
			c2.6-4.6,7.1-7.5,12.2-8.6c1.4-0.3,2.9-0.4,4.4-0.4c4,0,8.3,1.1,12.2,3.2c3.4,1.9,5.9,4.9,7,8.1c1.1,3.1,1,6.4-0.6,9.2
			c0,0.1-0.1,0.1-0.1,0.2c-1.7,2.8-4.4,4.6-7.6,5.3c-3.4,0.7-7.2,0.1-10.6-1.8c-1.5-0.8-2.5-2.1-3-3.4s-0.4-2.6,0.2-3.7
			c0.6-1.1,1.7-1.8,3-2.1c1.4-0.3,3,0,4.5,0.8c1.1,0.6,2.6,0.2,3.2-0.9c0.6-1.1,0.2-2.6-0.9-3.2c-2.5-1.4-5.3-1.8-7.2-1.5
			c-2.5,0.6-4.8,2.1-6.1,4.4c-1.4,2.3-1.5,5-0.6,7.5c0.9,2.3,2.6,4.5,5.1,5.9c4.5,2.5,9.4,3.2,13.8,2.3c2.2-0.5,4.4-1.3,6.2-2.6
			c1.8-1.3,3.4-3,4.5-5c1.8-3.3,2.2-7,1.6-10.6c-0.2-0.8-0.4-1.7-0.7-2.5c-1.5-4.1-4.6-8-9-10.5c-0.1,0-0.2-0.1-0.3-0.1
			c-2.8-1.5-5.7-2.6-8.7-3.2c-3.8-0.8-7.6-0.8-11.1,0c-6.4,1.4-12,5.1-15.3,10.9c-3.3,5.8-3.6,12.5-1.4,18.7c1.1,3.1,2.7,6,4.9,8.6
			c2.2,2.6,5,4.9,8.2,6.7c8.4,4.7,17.7,6,25.9,4.3c4.4-0.9,8.5-2.7,12-5.2c2.6-1.9,5-4.3,6.8-7.1c0,0,0,0,0,0
			c0.4-0.6,0.8-1.2,1.1-1.8c0.2-0.4,0.4-0.8,0.6-1.2c0,0,0,0,0,0c1.1-2.3,1.9-4.6,2.4-6.8c0.2-0.8,0.3-1.6,0.3-2.4v0
			C151.7,433.7,151.2,429.7,149.8,425.8z"/>
	</g>
	<path class="st0" d="M193.5,483.7c-3.4,5.7-9.1,9.3-15.5,10.5s-13.5,0-19.8-3.7c-8.3-4.9-14.1-12.3-16.7-20.3
		c-1.4-4.3-1.9-8.8-1.4-13.2c0.4-3.3,1.4-6.6,3-9.7c0,0,0,0,0,0c0.2-0.5,0.5-0.9,0.8-1.4c0.2-0.3,0.4-0.7,0.6-1
		c1.5-2.2,3.1-4.2,5-5.8c0.6-0.5,1.2-1,1.9-1.5v0c3.2-2.2,6.9-3.7,10.9-4.4c1.9-0.4,3.9-0.5,5.9-0.6c6.6-0.1,13.9,1.4,21.4,4.3
		c1.2,0.5,1.8,1.8,1.3,3c-0.4,1-1.3,1.5-2.3,1.5c-0.2,0-0.4-0.1-0.7-0.2c-9-3.5-17.5-4.8-24.7-3.5c-3.5,0.7-6.7,2-9.4,4
		c-1.9,1.4-3.6,3.1-5,5.2c0,0,0,0,0,0c-0.3,0.4-0.6,0.8-0.8,1.3c-0.3,0.5-0.6,1.1-0.9,1.7c0,0,0,0,0,0c-2.8,5.8-3,12.5-1,18.7
		c2.3,7,7.4,13.5,14.7,17.8c5.3,3.2,11.3,4.1,16.6,3.1c5.2-1,9.7-3.8,12.4-8.3c2.6-4.5,3-9.8,1.4-14.8v-0.1c-1.1-3.3-3-6.4-5.7-9h0
		c-1.5-1.5-3.1-2.8-5-4c-2.6-1.5-5.4-2.2-8-2.2c-0.4,0-0.8,0-1.1,0h0c-0.5,0-0.9,0.1-1.3,0.2c-3.2,0.6-6.1,2.4-7.7,5.2
		c-1.7,2.8-1.8,6.1-0.8,9.3c1.1,3.2,3.4,6.2,6.8,8.2c1.4,0.9,3,1.1,4.4,0.9c1.3-0.2,2.4-0.9,3.1-2c0.6-1.1,0.7-2.4,0.3-3.7
		c-0.7-1.3-1.7-2.6-3.2-3.4c-1.1-0.7-1.5-2.1-0.8-3.2c0.7-1.1,2.1-1.5,3.2-0.8c2.4,1.4,4.2,3.6,5,6c0.3,1,0.5,2,0.5,3
		c0,1.6-0.4,3.1-1.2,4.5c-1.4,2.3-3.7,3.8-6.2,4.2c-2.5,0.5-5.2,0-7.7-1.4c-4.4-2.6-7.5-6.5-8.9-10.8c-1.4-4.4-1.1-9.1,1.2-13.1
		c1.7-2.8,4.2-4.9,7-6.2h0c1.2-0.5,2.5-0.9,3.8-1.2c4.4-0.8,9.2,0,13.6,2.5c0.1,0,0.2,0.1,0.3,0.2c4.6,2.8,8.2,6.5,10.6,10.7h0
		c0.9,1.5,1.6,3.1,2.1,4.8v0.1C197.3,471.3,196.9,478,193.5,483.7z"/>
	<path class="st0" d="M50.3,337c0.6,1.1,0.1,2.5-1,3.1s-2.4,0.1-3-0.9l0,0c-0.9-1.4-2.1-2.4-3.5-2.9c-1.2-0.4-2.5-0.3-3.6,0.2
		c-0.1,0-0.1,0.1-0.2,0.1c-1,0.7-1.7,1.8-1.9,3c-0.3,1.4,0,2.9,0.8,4.3c0.1,0.1,0.1,0.2,0.1,0.2c2,3.3,5,5.6,8.2,6.7
		c3.1,1,6.5,0.8,9.3-0.8c2.8-1.7,4.6-4.5,5.2-7.7c0.6-3.3,0-7.1-2-10.5l0,0c-3.2-5.3-7.9-9-13-10.7h-0.1c-5-1.6-10.3-1.3-14.8,1.4
		c-4.5,2.7-7.4,7.2-8.3,12.4c-1,5.3,0,11.2,3.1,16.6c4.3,7.3,10.8,12.4,17.8,14.7c6.9,2.3,14.2,1.8,20.4-1.9
		c5.9-3.5,9.3-8.9,10.5-15.3c1.3-7.2,0-15.8-3.5-24.7c-0.5-1.2,0.1-2.6,1.3-3c1.2-0.5,2.6,0.1,3,1.3c3.8,9.8,5.2,19.2,3.7,27.3
		c-1.4,7.7-5.5,14.2-12.7,18.4c-7.4,4.4-16.2,4.9-24.3,2.3c-8-2.6-15.4-8.4-20.3-16.7c-3.8-6.4-4.9-13.5-3.7-19.8
		c1.2-6.5,4.8-12.1,10.5-15.5s12.4-3.8,18.6-1.8H47c6.1,2,11.7,6.4,15.5,12.7c0.1,0.1,0.1,0.2,0.2,0.3c2.5,4.4,3.3,9.2,2.5,13.6
		c-0.8,4.5-3.4,8.5-7.4,10.9s-8.7,2.7-13.1,1.2c-4.2-1.4-8.2-4.4-10.8-8.8v-0.1c-1.4-2.4-1.9-5.2-1.4-7.7c0.5-2.6,1.9-4.8,4.2-6.2
		h0.1c2.3-1.4,5-1.5,7.5-0.7c2.4,0.8,4.6,2.5,6.1,5l0,0H50.3L50.3,337z"/>
	<g>
		<path class="st0" d="M107.8,379.4c-3.5-4.4-7.2-8.1-11.1-11c-1.7-1.3-3.5-2.5-5.2-3.4c-1.8-1-3.6-1.8-5.4-2.5
			c-3.9-1.4-7.9-1.9-11.9-1.5h0c-3.5,0.3-7,1.4-10.4,3.3c-3.5,2-6.4,4.6-8.7,7.7c-2.7,3.5-4.5,7.7-5.4,12.2
			c-0.5,2.3-0.7,4.6-0.7,7.1c0,6.2,1.6,12.8,5,18.8c3.6,6.4,9.2,11,15.3,13.1c6.2,2.1,12.9,1.9,18.7-1.4s9.6-8.9,10.9-15.3
			c0.4-1.8,0.5-3.6,0.5-5.5c0-3.3-0.6-6.7-1.8-10c-0.5-1.5-1.2-3-2-4.4c-0.7-1.3-1.6-2.5-2.5-3.5c-2.3-2.6-5.1-4.5-8.1-5.5
			c-1.8-0.6-3.7-1-5.6-1c-2.6,0-5.2,0.6-7.5,2c-4,2.3-6.7,6.2-7.6,10.7c-0.2,1.2-0.4,2.5-0.4,3.8c0,3.4,0.9,6.9,2.7,10
			c1.4,2.5,3.5,4.3,5.9,5.1c1,0.3,2.1,0.5,3.2,0.5c1.5,0,3-0.3,4.3-1.1c2.4-1.3,3.9-3.5,4.4-6.1c0.5-2.5,0.1-5.2-1.3-7.7
			c-0.7-1.1-2.1-1.5-3.2-0.9c-1.1,0.7-1.5,2.1-0.9,3.2c0.8,1.5,1.1,3.1,0.7,4.7c-0.3,1.3-1,2.4-2.1,3c-1.1,0.6-2.5,0.6-3.7,0.2
			c-1.3-0.5-2.6-1.5-3.4-2.9v-0.1c-2-3.5-2.5-7.3-1.8-10.6c0.3-1.6,0.9-3.1,1.8-4.4c0.9-1.3,2.1-2.4,3.5-3.2
			c2.9-1.6,6.2-1.7,9.3-0.6c3.2,1.1,6.2,3.5,8.1,6.9v0.1c3.1,5.4,3.9,11.3,2.8,16.6c-1.1,5.2-4,9.6-8.6,12.2
			c-4.6,2.5-9.9,2.7-14.9,1c-5-1.8-9.7-5.5-12.7-10.9l-0.1-0.2c-4.2-7.3-5.3-15.4-3.8-22.6c1.5-6.9,5.2-12.9,11.2-16.4
			c0,0,0.1-0.1,0.1-0.1c0.2-0.1,0.3-0.2,0.5-0.3c0.1-0.1,0.2-0.1,0.3-0.2c0,0,0.1,0,0.1,0c0,0,0,0,0,0c5.9-3.2,12-3.4,18.1-1.3
			c2.9,1.1,5.8,2.6,8.6,4.7c3.9,2.8,7.6,6.4,11.1,10.7c0.2,0.3,0.6,0.5,0.9,0.7c0.8,0.3,1.7,0.3,2.4-0.3
			C108.4,381.9,108.6,380.4,107.8,379.4z"/>
	</g>
	<path class="st0" d="M37.4,223.2c0,1.3-1,2.3-2.3,2.3s-2.3-1-2.4-2.3c0-1.7-0.6-3.2-1.6-4.2c-0.9-1-2.1-1.6-3.3-1.6
		c-1.3,0-2.4,0.6-3.3,1.6c-0.9,1.1-1.5,2.6-1.5,4.3l0,0l0,0l0,0l0,0v0.2c0.1,3.9,1.5,7.3,3.7,9.8s5.2,4,8.4,3.9l0,0l0,0l0,0l0,0h0.2
		c3.2-0.1,6.1-1.6,8.2-4.1c2.2-2.6,3.6-6.2,3.5-10.1l0,0l0,0l0,0l0,0v-0.2c-0.1-6.1-2.3-11.6-5.9-15.6c-3.5-3.9-8.3-6.3-13.5-6.3
		c-5.2,0.1-10,2.6-13.4,6.5c-3.5,4.1-5.6,9.7-5.6,15.9c0.1,8.5,3.2,16.1,8.1,21.6c4.8,5.4,11.4,8.7,18.6,8.6c6.9-0.1,12.5-3,16.7-8
		c4.8-5.5,7.9-13.6,9.3-23.2c0.2-1.3,1.4-2.2,2.7-2c1.3,0.2,2.2,1.4,2,2.7c-1.6,10.4-5.1,19.3-10.4,25.5c-5.1,6-11.9,9.5-20.2,9.6
		c-8.6,0.1-16.5-3.8-22.2-10.2c-5.6-6.3-9.1-15-9.2-24.6c-0.1-7.4,2.5-14.1,6.7-19c4.3-5,10.2-8.1,16.9-8.2
		c6.6-0.1,12.7,2.9,17.1,7.8c4.3,4.8,6.9,11.3,7.1,18.6c0,0.1,0,0.2,0,0.2l0,0l0,0c0,5.1-1.7,9.8-4.6,13.2c-2.9,3.4-7,5.6-11.6,5.7
		c-0.1,0-0.2,0-0.3,0l0,0l0,0c-4.7,0-8.9-2.1-11.9-5.5c-2.9-3.3-4.8-7.8-4.9-12.9c0-0.1,0-0.2,0-0.2l0,0l0,0c0-2.8,1-5.4,2.6-7.3
		c1.7-2,4.1-3.2,6.8-3.3c2.7,0,5.1,1.2,6.9,3.1C36.3,217.7,37.3,220.3,37.4,223.2z"/>
	<path class="st0" d="M32.7,288.8c0-1.3,1.1-2.3,2.4-2.3c1.3,0,2.3,1.1,2.3,2.4c0,2.8-1.1,5.4-2.8,7.3c-1.7,2-4.2,3.2-6.9,3.1
		c-2.7,0-5.1-1.3-6.8-3.3c-1.6-1.9-2.6-4.5-2.6-7.3l0,0l0,0c0-0.1,0-0.2,0-0.2c0.1-5,2-9.6,4.9-12.9c3.1-3.4,7.3-5.5,11.9-5.5l0,0
		l0,0l0,0c0.1,0,0.2,0,0.3,0c4.6,0.1,8.7,2.3,11.6,5.7c2.9,3.4,4.7,8.1,4.6,13.2l0,0l0,0c0,0.1,0,0.2,0,0.2
		c-0.1,7.3-2.8,13.9-7.1,18.6c-4.4,4.9-10.4,7.9-17.1,7.8s-12.6-3.2-16.9-8.2c-4.2-4.9-6.8-11.6-6.7-19l0,0l0,0c0-0.1,0-0.2,0-0.2
		C4,278.6,7.5,270,13,263.8c5.7-6.4,13.5-10.3,22.1-10.2l0,0l0,0c0.1,0,0.2,0,0.2,0c8.3,0.1,14.9,3.7,20,9.6
		c5.3,6.2,8.8,15.1,10.4,25.5c0.2,1.3-0.7,2.5-2,2.7c-1.3,0.2-2.5-0.7-2.7-2c-1.4-9.5-4.6-17.6-9.3-23.2c-4.2-4.9-9.7-7.8-16.5-8
		c-0.1,0-0.1,0-0.2,0l0,0l0,0l0,0l0,0c-7.2-0.1-13.8,3.2-18.6,8.6c-4.9,5.4-7.9,13-8.1,21.4v0.2l0,0l0,0l0,0l0,0
		c-0.1,6.2,2.1,11.8,5.6,15.9c3.4,4,8.2,6.5,13.4,6.6s10-2.3,13.5-6.3s5.8-9.5,5.9-15.6v-0.2l0,0l0,0l0,0l0,0
		c0-3.9-1.3-7.5-3.5-10.1c-2.1-2.5-5-4-8.1-4.1h-0.2l0,0l0,0l0,0l0,0l0,0c-3.3,0-6.2,1.5-8.4,3.9c-2.2,2.5-3.6,6-3.7,9.8v0.2l0,0
		l0,0l0,0l0,0c0,1.7,0.6,3.2,1.5,4.3c0.9,1,2,1.6,3.3,1.6s2.5-0.6,3.3-1.6C32.1,292,32.7,290.5,32.7,288.8z"/>
	<g>
		<path class="st0" d="M91.5,123l0.4-0.5C91.8,122.6,91.6,122.8,91.5,123z M107.6,129.5c-0.9-0.7-2.3-0.6-3.1,0.2c0,0,0,0,0,0
			c-0.1,0.1-0.1,0.1-0.2,0.2c-6,7.5-12.8,13-19.7,15.4c-6,2-12.2,1.9-18-1.2c0,0,0,0-0.1,0c0,0,0,0,0,0c-0.1-0.1-0.3-0.1-0.4-0.2
			c-0.3-0.2-0.6-0.4-0.9-0.6c0,0-0.1,0-0.1,0c-5.7-3.6-9.4-9.5-10.8-16.2c-0.4-2-0.6-4.1-0.6-6.2c0-5.5,1.4-11.1,4.4-16.5
			c3.1-5.4,7.7-9.2,12.8-11c2.2-0.8,4.4-1.2,6.6-1.2c2.9,0,5.7,0.7,8.3,2.2c4.6,2.6,7.5,7,8.6,12.2c0.3,1.4,0.4,2.9,0.4,4.4
			c0,4-1.1,8.3-3.2,12.2c-1.9,3.5-4.9,5.9-8.1,7c-3.1,1.1-6.4,1-9.2-0.6c-0.1,0-0.1-0.1-0.2-0.1c-2.8-1.7-4.6-4.4-5.3-7.6
			c-0.2-0.9-0.3-1.8-0.3-2.8c0-2.6,0.7-5.3,2.1-7.7c0.8-1.5,2.1-2.5,3.4-3c0.6-0.2,1.1-0.3,1.7-0.3c0.7,0,1.4,0.2,2,0.5
			c1.1,0.6,1.8,1.7,2.1,3c0.3,1.4,0,3-0.8,4.5c-0.6,1.1-0.2,2.6,0.9,3.2c1.1,0.6,2.6,0.2,3.2-0.9c1.4-2.5,1.8-5.3,1.4-7.6
			c-0.3-1.2-0.8-2.5-1.6-3.5s-1.7-2-2.8-2.6c-2.3-1.4-5-1.5-7.5-0.6c-2.4,0.9-4.5,2.6-5.9,5c0,0-0.1,0.1-0.1,0.2
			c-2.4,4.4-3.1,9.3-2.2,13.7c0.9,4.5,3.5,8.4,7.5,10.7c0.1,0,0.2,0.1,0.3,0.1c4,2.2,8.7,2.4,13,0.9c4.2-1.5,8-4.6,10.5-9
			c0-0.1,0.1-0.2,0.1-0.3c3.5-6.4,4.5-13.5,3.2-19.8s-5-11.9-10.7-15.2c-0.1,0-0.2-0.1-0.3-0.1c-5.8-3.2-12.4-3.5-18.6-1.3
			c-3.1,1-6,2.7-8.6,4.9c-2.6,2.2-4.9,5-6.7,8.2c-4.7,8.4-6,17.7-4.3,26c0.9,4.4,2.7,8.5,5.2,12c2,2.7,4.4,5.1,7.3,6.9
			c0,0,0,0,0.1,0c0.5,0.3,1,0.6,1.6,0.9c0.3,0.1,0.5,0.3,0.8,0.4c0,0,0.1,0,0.1,0c3.1,1.6,6.3,2.5,9.5,2.9h0c4,0.4,8-0.1,12-1.5
			c1.7-0.6,3.4-1.4,5.1-2.3c5.4-2.9,10.6-7.3,15.3-12.9c0.4-0.5,0.8-1.1,1.3-1.6c0-0.1,0.1-0.1,0.1-0.2
			C108.8,131.8,108.6,130.3,107.6,129.5z"/>
	</g>
	<path class="st0" d="M46.2,172.7c0.7-1.1,2.1-1.5,3.2-0.8c1.1,0.7,1.5,2.1,0.8,3.2c-1.4,2.4-3.7,4.2-6,4.9l0,0
		c-2.5,0.8-5.2,0.6-7.5-0.7c-2.3-1.4-3.8-3.7-4.3-6.2V173c-0.4-2.4,0-5.2,1.4-7.6c2.6-4.4,6.5-7.5,10.8-8.9
		c4.4-1.4,9.1-1.1,13.1,1.2c4,2.4,6.6,6.4,7.4,10.9c0.8,4.4,0,9.2-2.5,13.6c0,0.1-0.1,0.2-0.2,0.3c-3.8,6.3-9.4,10.7-15.5,12.7h-0.1
		c-6.2,2-12.9,1.6-18.6-1.8c-5.7-3.4-9.3-9.1-10.5-15.5c-1.2-6.4,0-13.5,3.7-19.8c4.9-8.3,12.3-14.1,20.3-16.7
		c8.1-2.7,16.9-2.1,24.3,2.3c7.2,4.3,11.3,10.7,12.7,18.4c1.5,8.1,0.1,17.5-3.7,27.3c-0.5,1.2-1.8,1.8-3,1.3s-1.8-1.8-1.3-3
		c3.5-9,4.8-17.5,3.5-24.7c-1.2-6.4-4.6-11.8-10.5-15.3c-6.2-3.7-13.6-4.1-20.4-1.9c-7,2.3-13.5,7.4-17.8,14.7
		c-3.2,5.3-4.1,11.3-3.1,16.6c1,5.2,3.8,9.7,8.3,12.4c4.5,2.6,9.8,3,14.8,1.4h0.1c5.1-1.7,9.8-5.4,13-10.7l0,0c2-3.4,2.6-7.2,2-10.5
		c-0.6-3.2-2.4-6.1-5.2-7.7c-2.8-1.7-6.1-1.8-9.3-0.8c-3.2,1.1-6.2,3.4-8.2,6.8c-0.8,1.4-1.1,3-0.9,4.4v0.1c0.2,1.3,0.9,2.4,2,3.1
		c1.1,0.6,2.4,0.7,3.7,0.3l0,0l0,0C44.1,175.2,45.4,174.2,46.2,172.7z"/>
	<path class="st0" d="M175.1,50.3c-1.1,0.7-2.5,0.3-3.2-0.8s-0.3-2.5,0.8-3.2c1.4-0.9,2.4-2.1,2.9-3.5c0.4-1.3,0.3-2.6-0.3-3.7l0,0
		c-0.6-1.1-1.8-1.8-3.1-2c-1.4-0.3-3,0-4.4,0.9l0,0c-3.4,2-5.7,5-6.8,8.2l0,0l0,0c-1,3.1-0.8,6.4,0.8,9.1c0.1,0.1,0.1,0.2,0.1,0.2
		c1.7,2.7,4.5,4.5,7.6,5.1l0,0l0,0c3.3,0.6,7.1,0,10.5-2l0,0c5.3-3.2,9.1-7.9,10.7-13l0,0l0,0c1.6-5,1.3-10.3-1.3-14.9
		c-2.7-4.5-7.2-7.4-12.4-8.3c-5.3-1-11.2,0-16.6,3.1c-7.3,4.3-12.4,10.8-14.7,17.8c-2.3,6.9-1.8,14.2,1.9,20.4
		c3.5,5.9,8.8,9.3,15.3,10.5c7.2,1.3,15.8,0,24.7-3.5c1.2-0.5,2.6,0.1,3,1.3c0.5,1.2-0.1,2.6-1.3,3c-9.8,3.8-19.2,5.2-27.3,3.7
		c-7.7-1.4-14.2-5.5-18.4-12.7c-4.4-7.4-4.9-16.2-2.3-24.3c2.6-8,8.4-15.4,16.7-20.3c6.3-3.8,13.5-4.9,19.8-3.7
		c6.5,1.2,12.1,4.8,15.5,10.5s3.8,12.5,1.8,18.7l0,0c-2,6.1-6.4,11.8-12.7,15.5l0,0l0,0c-4.4,2.6-9.3,3.4-13.7,2.6l0,0
		c-4.5-0.8-8.5-3.4-10.9-7.3l0,0l0,0c-2.4-4-2.7-8.7-1.2-13.1l0,0c1.4-4.3,4.5-8.2,8.9-10.8l0,0l0,0c2.4-1.4,5.2-1.9,7.7-1.4
		c2.6,0.5,4.9,1.9,6.2,4.2l0,0c1.4,2.3,1.5,5,0.7,7.5C179.3,46.6,177.6,48.8,175.1,50.3z"/>
	<path class="st0" d="M116,79c1.1-0.6,2.6-0.2,3.2,0.9s0.2,2.6-0.9,3.2c-2.5,1.4-5.2,1.8-7.7,1.3c-2.6-0.5-4.8-2-6.1-4.4
		c-1.3-2.3-1.4-5-0.6-7.5c0.8-2.4,2.6-4.5,5.1-5.9l0,0l0,0c4.5-2.5,9.4-3.2,13.8-2.3c4.5,0.9,8.3,3.5,10.6,7.5
		c0.1,0.1,0.1,0.2,0.1,0.3c2.2,4,2.4,8.7,0.9,13c-1.5,4.2-4.6,8.1-9.1,10.6l0,0c-6.4,3.6-13.5,4.6-19.9,3.3c-6.4-1.5-12-5.2-15.3-11
		l0,0c-3.3-5.8-3.5-12.5-1.4-18.7c2.1-6.1,6.6-11.6,13-15.2c0.1,0,0.2-0.1,0.2-0.1c8.4-4.7,17.6-6,25.8-4.2
		c8.4,1.7,15.7,6.6,19.9,14.1l0,0c4.1,7.3,4.4,14.9,1.8,22.3c-2.7,7.7-8.7,15.2-16.9,21.8c-1,0.8-2.5,0.6-3.3-0.4s-0.6-2.5,0.4-3.3
		c7.5-6,12.9-12.8,15.4-19.7c2.2-6.2,1.9-12.5-1.5-18.5l0,0c-3.5-6.3-9.7-10.3-16.8-11.8c-7.2-1.5-15.3-0.3-22.7,3.8l0,0l0,0l0,0
		c-5.4,3-9.2,7.7-11,12.8c-1.7,5-1.5,10.3,1,14.9l0,0c2.6,4.6,7,7.5,12.2,8.6c5.3,1.1,11.2,0.3,16.6-2.8l0,0c3.4-1.9,5.8-4.9,7-8.1
		c1.1-3.1,1-6.4-0.6-9.2l0,0c-1.6-2.8-4.4-4.7-7.6-5.3c-3.3-0.7-7.1-0.2-10.5,1.8l0,0c-1.5,0.8-2.5,2.1-3,3.4
		c-0.4,1.2-0.4,2.6,0.2,3.7s1.7,1.8,3,2.1C112.9,80.1,114.5,79.8,116,79z"/>
</g>
<g>
	<path class="st1" d="M95.6,386.6c0.8,1.4,1.5,2.9,2,4.4c-1.6-2.1-3.2-4.3-4.7-6.5l0,0c-0.5-0.7-1-1.4-1.4-2.1
		c0.2,0.1,0.4,0.1,0.6,0.2c0.4,0.1,0.7,0.3,1,0.4C94,384.1,94.9,385.3,95.6,386.6z"/>
	<path class="st1" d="M134.9,426.8c0.3,0.8,0.5,1.7,0.7,2.5c-0.7-0.5-1.4-1-2.1-1.6c-5.8-4.6-11.3-9.5-16.6-14.7
		c3,0.6,5.9,1.6,8.7,3.2c0.1,0,0.2,0.1,0.3,0.1C130.3,418.8,133.4,422.7,134.9,426.8z"/>
	<path class="st1" d="M289.1,460.6c0,0-0.1,0-0.2,0c-5.1-0.1-9.8,1.7-13.2,4.6c-1.7,1.5-3.1,3.2-4.1,5.2c2-0.1,4-0.3,6-0.5h0
		c0.3-0.3,0.6-0.6,1-0.9c1.3-1.1,2.9-2,4.6-2.6c1.7-0.6,3.6-0.9,5.5-0.9h0.2c2.9,0,5.6,0.6,8.1,1.5c2.6-0.5,5.1-1.1,7.6-1.7
		C300.3,462.4,295,460.7,289.1,460.6z M343.6,446.8c-4.4-0.8-9.2,0-13.6,2.5c-0.1,0.1-0.2,0.1-0.3,0.2c-5.1,3.1-8.9,7.3-11.3,12
		c0.5-0.1,1-0.3,1.5-0.5c0.6-0.2,1.2-0.4,1.8-0.6c0.8-0.2,1.5-0.5,2.2-0.7c0.4-0.1,0.8-0.3,1.2-0.4c0-0.1,0.1-0.1,0.1-0.2
		c1.8-2.2,4-4.2,6.7-5.8c3.4-2,7.2-2.6,10.5-2c0.4,0.1,0.8,0.2,1.1,0.3h0c0.1,0,0.2-0.1,0.3-0.1c1.8-0.9,3.5-1.7,5.2-2.6
		C347.4,447.8,345.6,447.2,343.6,446.8z M432.6,362.9c-0.5-0.7-1-1.4-1.5-2c-1.8,0.3-3.6,0.7-5.5,1.4c-1.6,0.6-3.3,1.3-4.9,2.2
		c1.9-2.9,3.8-5.9,5.5-8.9c-1.2-1.1-2.4-2.1-3.6-3.1c-12.5-10-29.2-15.6-34.3-17.2c-24.9-4.6-44.9-13.6-55.7-17.4
		c-0.2-0.1-0.2-0.1-0.4-0.2c-0.5-0.2-1-0.3-1.4-0.5c-13.9-6.2-17.3-20.8-18.7-23.5c-1.3-2.2-4.3-3.1-6.3-3.3c-0.1,0-0.1,0-0.2,0
		c-0.6-0.1-1.2-0.2-1.5-0.2l-1,0.1l-0.1,0l-91.2,8.9c0,0-0.3,0-0.7,0.2c-0.1,0-0.1,0-0.2,0c-1.3,0.4-3.8,1.4-6.4,3.8
		c0,0-0.1,0.1-0.1,0.1c-2.4,2.2-4.9,5.5-7.1,10.5c-2,4.7-7,8.9-12.7,12.4c0,0-0.1,0-0.1,0c-0.1,0-0.1,0.1-0.3,0.2
		c-0.1,0-0.2,0.1-0.3,0.2h0c-9.8,5.9-21.4,9.6-22.7,10c-2.1,0.7-33.2,10.4-43.6,15.9c-6,3.2-13.6,9.5-19.3,14.4
		c-0.6,0.5-1.2,1-1.8,1.5c-0.6,0.5-1.2,1.1-1.8,1.6c-0.5,0.4-0.9,0.8-1.3,1.2c-0.2,0.2-0.4,0.3-0.5,0.5c3.9,2.8,7.6,6.4,11.1,10.7
		c0.2,0.3,0.6,0.5,0.9,0.7c7.2,8.6,15.3,16.7,24.2,24.1c1.1,1,2.3,1.9,3.4,2.8c0,0,0.1,0.1,0.1,0.1c6.1,5.4,10.6,11.4,12.7,17.4
		c1.1,3.3,1.6,6.6,1.3,9.8c0.9,0.6,1.9,1.3,2.8,1.9c0,0,0,0,0,0c0.5,0.3,1,0.6,1.5,0.9c0.6,0.4,1.2,0.8,1.9,1.2
		c0.3,0.2,0.5,0.3,0.8,0.5c2.8-2,5.9-3.3,9.4-4c7.2-1.3,15.7,0,24.7,3.5c0.2,0.1,0.5,0.1,0.7,0.2c10.8,3.9,21.8,6.9,33,8.8
		c0.3,0.2,0.6,0.3,1,0.4c9.6,1.4,17.6,4.5,23.2,9.3c3.5,2.9,6,6.6,7.2,10.9c0.5,0,1,0,1.5,0c0.3,0,0.7,0,1,0h3.8
		c1.3-4,3.7-7.5,7-10.3c5.6-4.7,13.7-7.9,23.2-9.3c0.7-0.1,1.3-0.5,1.7-1.1c11-2,22-4.9,32.6-8.8c0.3,0,0.7,0,1-0.2
		c8.9-3.5,17.5-4.8,24.7-3.5c4.1,0.8,7.8,2.5,10.8,5.1c0.6-0.4,1.3-0.8,1.9-1.1c0.8-0.5,1.5-0.9,2.2-1.4c0.7-0.4,1.3-0.8,2-1.2
		c-0.7-3.8-0.3-7.7,1.1-11.5c2.5-6.9,7.9-13.7,15.4-19.7c0.4-0.3,0.7-0.8,0.8-1.3c8.4-7.1,16.4-15.1,23.7-23.8
		c1-1.1,1.9-2.3,2.8-3.4c0,0,0.1-0.1,0.1-0.1c5.4-6.1,11.4-10.6,17.4-12.7c2.2-0.8,4.5-1.2,6.7-1.3
		C433.7,364.5,433.2,363.7,432.6,362.9z M162.2,433.2c-4,0.7-7.7,2.2-10.9,4.4c0.4-4-0.2-7.9-1.5-11.8c-0.6-1.7-1.3-3.4-2.2-5
		c6.7,4.4,13.5,8.4,20.5,11.8C166.1,432.7,164.1,432.8,162.2,433.2z M263.1,456.9c-3,2.6-5.5,5.7-7.1,9.1c-1.6-3.7-4.2-7-7.4-9.8
		c-1.4-1.2-3-2.4-4.8-3.4c8.4,0.5,16.8,0.5,25.2-0.1C266.8,454,264.9,455.4,263.1,456.9z M362.8,426c-1.4,3.9-1.9,7.9-1.5,11.8
		c-3.3-2.4-7-3.9-11.2-4.6c-2-0.4-4-0.6-6.2-0.6c0.7-0.3,1.3-0.7,2-1c6.7-3.4,13.3-7.3,19.6-11.5C364.4,422.1,363.5,424,362.8,426z
		 M426.7,377.1c-4.1,1.5-8,4.6-10.5,9c0,0.1-0.1,0.2-0.1,0.3c-2,3.7-3.2,7.6-3.6,11.5c2.8-3.4,5.5-7,8.2-10.6
		c2.5-3.4,4.8-7,7.1-10.5C427.4,376.9,427,377,426.7,377.1z M387,416.4c-0.1,0-0.2,0-0.3,0.1c-4.4,2.5-7.5,6.3-9,10.5
		c-0.6,1.6-0.9,3.2-1,4.8c2.2-1.7,4.4-3.3,6.6-5.1l0,0c1.2-1,2.5-2,3.7-3c1.4-1.2,2.8-2.4,4.2-3.6c0.3-0.2,0.5-0.5,0.8-0.7l0,0
		c2.4-2.1,4.7-4.3,6.9-6.6C394.9,413.1,390.8,414.2,387,416.4z M236,464.7c-1.7-1.5-3.7-2.6-6-3.4c-2.2-0.8-4.7-1.2-7.2-1.2
		c0,0-0.1,0-0.2,0c-5.6,0.2-10.8,1.7-15,4.4c0.8,0.2,1.6,0.4,2.4,0.6c1.7,0.4,3.4,0.8,5.1,1.1h0c2.4-0.9,5.1-1.3,7.8-1.4h0.2
		c3.9-0.1,7.5,1.3,10.1,3.5c0.4,0.3,0.8,0.7,1.1,1h0c2,0.2,4,0.5,6,0.6C239.2,468,237.8,466.2,236,464.7z M182.6,449.5
		c-0.1-0.1-0.2-0.2-0.3-0.2c-4.4-2.5-9.2-3.3-13.6-2.5c-1.3,0.2-2.6,0.6-3.8,1.2c2.1,1.1,4.2,2.1,6.3,3.1h0c0.9,0.4,1.7,0.8,2.6,1.2
		c3.8,1.8,7.6,3.4,11.6,4.9h0c2,0.8,4,1.5,6.1,2.3l1.8,0.7C190.8,456,187.2,452.3,182.6,449.5z"/>
	<path class="st2" d="M237.4,406.9c0,0-0.7-52.6,2.7-61.6c0.7-2.7,1.4-5,1.4-5L237.4,406.9z"/>
	<path class="st2" d="M328,334.2c-15.9,28-51.8,33.3-51.8,33.3l-2.1,31.8l-0.7,21.5l-1.4,1.4l0.4-19.4c0,0,0.4-35.9,2.1-36.7
		c54.5-12.6,57-48.5,57-48.5c0.1,0,0.2,0.1,0.3,0.2c0,0.2,0,0.3,0,0.6C332.2,323.8,330.8,329.3,328,334.2z"/>
	
		<ellipse transform="matrix(0.1602 -0.9871 0.9871 0.1602 -170.1571 579.4215)" class="st2" cx="255.4" cy="389.7" rx="4.2" ry="4.2"/>
	<circle class="st2" cx="255.4" cy="389.7" r="2.7"/>
	<circle class="st1" cx="255.4" cy="389.7" r="2.1"/>
	<path class="st3" d="M303.2,290l0.7,18l2.7,1.4c-0.7,5.5-3.5,11.1-6.9,15.9c-4.8,9-21.5,11.7-26.3,13.2c-6.2,1.4-24.2-2.1-27-2.1
		c-4.2-0.7-4.8,2.3-4.8,2.3v2.5c-0.7,0-9-1.4-15.9-6.2c-6.9-4.8-20.1-9-21.5-10.4c0-2.7-1.4-5.5-1.4-6.9c3.5,0,6.2-2.7,7.6-4.2
		c1.4-1.4,0.7-14.6,0.7-14.6l-0.7-7.6c0,0-6.9-9-11.7-24.9c-3.5-11.1-6.9-18.7-6.9-18.7s-9,2.7-11.1-7.6c-1.4-4.8-4.8-19.4-6.9-24.9
		c-1.4-4.8-4.2-22.1,7.6-15.9c0.7,0.7,0.7,0.7,0.7,0.7s-0.7-6.2-0.7-9c0-2.7,0.7-20.7,27.6-32.6c10.6-3.1,29.6-7.3,74.2-1.1
		c15.5,2.2,29.4,11.3,37,25c2.2,4,3.7,8.1,4.4,12.1c1.4-0.7,11.7-2.7,11.1,6.9c0,5.5-1.4,16.6-4.8,26.3c-2.1,4.8-4.8,15.9-11.7,15.9
		c-2.7,0-4.8,0-4.8,0s-3.5,23.6-6.2,30.5c-0.7,2.7-2.7,5.5-3.5,6.9c-0.7,1.4-1.4,2.1-1.4,2.7C303,284.4,303.2,290,303.2,290z"/>
	<path class="st1" d="M182,200c0,0,9.7,24.2,9.7,47.7c-2.1,0-9.7,2.6-12.2-11.5c-2.7-10.2-5.7-20.4-5.7-20.4s-5.2-17.8,3.2-17.9
		C180.8,198.6,182,200,182,200z"/>
	<path class="st1" d="M314.9,243.6c0,0,2.7-36,9.7-49.1c5.5-0.7,11.7-1.4,11.1,6.9c-0.7,7.7-4.2,30.9-11.5,39.5
		c-0.9,1-2,1.8-3.2,2.4c-2.3,1-4.6,2.2-6,1v-0.7H314.9z"/>
	<path class="st1" d="M191.8,247.8c0,0-0.7,31.8,4.8,44.3c2.7,6.9,4.8,7.6,4.8,7.6l-1.4-4.8l7.6,13.8v-5.8c0,0,8.3,19,15.2,22.4
		c-2.1-4.8-2.7-6.2-2.7-6.2s12.4,9.8,19.3,12.8c6.9,3.1,18.7-1.9,18.7-1.9l7.6-4.7l0.7,1.4l4.2-3.7c0,0,10.4-8.7,17.3-15.6
		c-0.7,3.5-0.7,4.2-0.7,4.2l5.5-5.5c0,0,22.9-13.6,22.5-62.2c-13.5,17.2-25.3,33.1-36.4,38.6c-7.6,4.2-17.3,4.2-17.3,4.2
		s-12.5-6.9-23.6,0C233.3,286.5,205.6,274.1,191.8,247.8z"/>
	<path class="st2" d="M184.7,325.5c0,0-15.2,19.2,52.7,40.6c2.2,0,2.2,0,2.2,0S183.1,350.6,184.7,325.5z"/>
	<polygon class="st1" points="311,277.2 308.1,288.3 303.9,279.6 	"/>
	<path class="st1" d="M233.5,328.6c0,0,6.7,5.6,8.1,6c1.4,0.7-4.2-6-4.2-6H233.5z"/>
	<g>
		<path class="st1" d="M296.6,158.8c0,0,10,14.2,20.9,21.8l-38.6-49l-7.4,6.4L296.6,158.8z"/>
		<path class="st1" d="M284.1,148.5c0,0,10,14.2,20.9,21.8l-38.6-49l-7.4,6.4L284.1,148.5z"/>
		<path class="st1" d="M273.8,146.2c0,0,12.3,12.2,24.4,17.9l-46.5-41.5l-6.2,7.6L273.8,146.2z"/>
		<path class="st1" d="M296.6,156c0,0,10,14.2,20.9,21.8l-38.6-49l-7.4,6.4L296.6,156z"/>
	</g>
	<g>
		<path class="st1" d="M213.1,153.9c0,0-10,14.2-20.9,21.8l38.6-49l7.4,6.4L213.1,153.9z"/>
		<path class="st1" d="M225.6,143.6c0,0-10,14.2-20.9,21.8l38.6-49l7.4,6.4L225.6,143.6z"/>
		<path class="st1" d="M235.9,141.3c0,0-12.3,12.2-24.4,17.9l46.6-41.5l6.2,7.6L235.9,141.3z"/>
		<path class="st1" d="M213.1,151.2c0,0-10,14.2-20.9,21.8l38.6-49l7.4,6.4L213.1,151.2z"/>
	</g>
	<path class="st1" d="M179.3,186.9v16.6l2.7-3.4c0,0-2.1-7.8,0.7-16.7s-2.3,0-2.3,0L179.3,186.9z"/>
	<path class="st1" d="M179.3,198.4c0,0,0-17,0-21.5c0-4.6,5.9-3.8,5.9-3.8l-4.2,9.7l-1.1,16.6L179.3,198.4z"/>
	<polygon class="st1" points="182,181.9 182.3,178.8 180.1,179.3 180.7,182.8 	"/>
	<path class="st1" d="M183.6,181.2c0,0-1.7,5.2-2,7.5c-0.5-0.8-0.3-6.5-0.2-6.6s1.8-2.7,1.8-2.7L183.6,181.2z"/>
	<path class="st1" d="M182,200c0,0,8.8-30.2,20-43.9c11.2-13.7-18.4,9.3-18.4,9.3l-2.9,17.3l-1.4,20.7L182,200z"/>
	<path class="st1" d="M193.5,170.3c0,0,3.7-5.1,8.9-10.2s-5.9-4-7.2-3.2s-7.6,8.5-7.6,9.2S193.5,170.3,193.5,170.3z"/>
	<path class="st1" d="M324,195.8c0,0-2.5-11.7-6.5-17.9s7.1-4.2,7.1-4.2l1.4,13.2l-1.4,7.6L324,195.8z"/>
	<path class="st1" d="M175.6,176.1c0,0,2.3-22.2,3.4-27.6c4.8,8.1,1.2,23.2,1.2,23.2L175.6,176.1z"/>
	<g>
		<path class="st1" d="M307.3,166c0,0,5.9,16.4,14.4,26.6l-24.4-57.4l-8.7,4.2L307.3,166z"/>
		<path class="st1" d="M298,152.7c0,0,5.9,16.4,14.4,26.6L288,121.9l-8.8,4.2L298,152.7z"/>
		<path class="st1" d="M288.6,147.9c0,0,8.7,15.1,18.8,23.6l-34.1-52.2l-7.9,5.7L288.6,147.9z"/>
		<path class="st1" d="M308,163.4c0,0,5.9,16.4,14.4,26.6L298,132.6l-8.7,4.2L308,163.4z"/>
	</g>
	<g>
		<path class="st1" d="M203.9,172.4c0,0-12.1,12.6-23.9,18.5l45.5-42.6l6.3,7.4L203.9,172.4z"/>
		<path class="st1" d="M217.7,163.9c0,0-12.1,12.6-23.9,18.5l45.5-42.6l6.3,7.4L217.7,163.9z"/>
		<path class="st1" d="M228.3,163.3c0,0-14.1,10.3-26.8,14.1l52.2-34.1l5,8.4L228.3,163.3z"/>
		<path class="st1" d="M204.3,169.7c0,0-12.1,12.6-23.9,18.5l45.5-42.6l6.3,7.4L204.3,169.7z"/>
	</g>
	<path class="st1" d="M329.5,179.9c0-15.2-2.7-31.1-5.5-45c-1.7-9.1-9.1-15.2-18.9-19.4l0,0c-0.1,0-0.1-0.1-0.2-0.1
		c-0.4-0.2-0.9-0.3-1.3-0.6c-37.8-15.4-70.3-10.4-87.8-5.3c-5.4,1.2-10,3-13.9,5.2h-0.1l0,0c-24.3,13.6-23.7,42.9-23.7,42.9
		c-1.2,5.2-1.5,9.2-1.5,10.5c-0.7,6.2-1.4,11.1-1.4,11.1l150.3,2.6l-0.2-2.5L329.5,179.9z"/>
</g>
</svg>
