<?xml version="1.0" encoding="utf-8"?>
<!-- Generator: Adobe Illustrator 26.0.1, SVG Export Plug-In . SVG Version: 6.00 Build 0)  -->
<svg version="1.1" id="Layer_1" xmlns="http://www.w3.org/2000/svg" xmlns:xlink="http://www.w3.org/1999/xlink" x="0px" y="0px"
	 viewBox="0 0 129.7 7.6" style="enable-background:new 0 0 129.7 7.6;" xml:space="preserve">
<style type="text/css">
	.st0{fill:#E4E5E7;}
</style>
<path class="st0" d="M124.5,1.4c-1,1-1,2.5,0,3.5c0.8,0.8,2.1,0.8,2.9,0c0.2-0.2,0.2-0.6,0-0.8c-0.2-0.2-0.6-0.2-0.8,0
	c-0.4,0.4-1,0.4-1.3,0c-0.5-0.5-0.5-1.4,0-1.9c0.7-0.7,1.8-0.7,2.5,0c0.9,0.9,0.9,2.4,0,3.4c-0.5,0.5-1.1,0.8-1.8,0.9c0,0,0,0,0,0
	c0,0-0.1,0-0.1,0c-2.4,0-3.7-1.5-5-3C119.6,1.8,118,0,115.1,0c-3,0-4.5,1.8-5.9,3.5c-1.3,1.6-2.5,3-5,3s-3.7-1.5-5-3.1
	C97.9,1.8,96.4,0,93.4,0c-3,0-4.5,1.8-5.9,3.5c-1.3,1.6-2.5,3.1-5,3.1c-2.4,0-3.7-1.5-5-3.1C76.2,1.8,74.7,0,71.7,0
	c-3.1,0-5.7,1.8-6.9,4.4C63.7,1.8,61.1,0,58,0c-3,0-4.5,1.8-5.9,3.5c-1.3,1.6-2.5,3.1-5,3.1c-2.4,0-3.7-1.5-5-3
	C40.8,1.8,39.3,0,36.3,0c-3,0-4.5,1.8-5.9,3.5c-1.3,1.6-2.5,3-5,3c-2.4,0-3.7-1.5-5-3.1C19.1,1.8,17.6,0,14.6,0
	c-3,0-4.5,1.8-5.9,3.5C7.5,5,6.2,6.5,3.8,6.5c0,0-0.1,0-0.1,0c0,0,0,0,0,0C3,6.4,2.3,6.1,1.8,5.6c-0.9-0.9-0.9-2.4,0-3.4
	c0.7-0.7,1.8-0.7,2.5,0c0.5,0.5,0.5,1.4,0,1.9C4,4.5,3.4,4.5,3,4.1c-0.2-0.2-0.6-0.2-0.8,0C2,4.3,2,4.7,2.2,4.9
	c0.8,0.8,2.1,0.8,2.9,0c1-1,1-2.5,0-3.5C4,0.3,2.2,0.3,1,1.4c-1.4,1.4-1.4,3.6,0,5c0.7,0.7,1.6,1.1,2.5,1.2c0,0,0,0,0.1,0
	c0,0,0.1,0,0.1,0c0,0,0,0,0.1,0c3,0,4.5-1.8,5.9-3.5c1.3-1.6,2.5-3,5-3c2.4,0,3.7,1.5,5,3.1c1.4,1.6,2.9,3.5,5.9,3.5
	c3,0,4.5-1.8,5.9-3.5c1.3-1.6,2.5-3.1,5-3.1c2.4,0,3.7,1.5,5,3.1c1.4,1.6,2.9,3.5,5.9,3.5c3,0,4.5-1.8,5.9-3.5
	c1.3-1.6,2.5-3.1,5-3.1c3.5,0,6.3,2.7,6.3,5.9c0,0.3,0.3,0.6,0.6,0.6c0.3,0,0.6-0.3,0.6-0.6c0-3.3,2.8-5.9,6.3-5.9
	c2.4,0,3.7,1.5,5,3c1.3,1.6,2.9,3.5,5.9,3.5s4.5-1.8,5.9-3.5c1.3-1.6,2.5-3,5-3c2.4,0,3.7,1.5,5,3.1c1.3,1.6,2.9,3.5,5.9,3.5
	c3,0,4.5-1.8,5.9-3.5c1.3-1.6,2.5-3.1,5-3.1c2.4,0,3.7,1.5,5,3.1c1.3,1.6,2.9,3.5,5.9,3.5c0,0,0.1,0,0.1,0c0,0,0.1,0,0.1,0
	c0,0,0,0,0.1,0c1-0.1,1.8-0.5,2.5-1.2c1.4-1.4,1.4-3.6,0-5C127.5,0.3,125.7,0.3,124.5,1.4z"/>
</svg>
