<?xml version="1.0" encoding="utf-8"?>
<!-- Generator: Adobe Illustrator 26.0.1, SVG Export Plug-In . SVG Version: 6.00 Build 0)  -->
<svg version="1.1" id="Layer_1" xmlns="http://www.w3.org/2000/svg" xmlns:xlink="http://www.w3.org/1999/xlink" x="0px" y="0px"
	 viewBox="0 0 512 25.1" style="enable-background:new 0 0 512 25.1;" xml:space="preserve">
<style type="text/css">
	.st0{fill:#545454;}
</style>
<g>
	<path class="st0" d="M7.3,5.2c3.5,0,6.5,2.5,7.2,5.8c79-4.7,158.8-3,237.9-3.2c41.2-0.1,82.5-0.3,123.7-0.4
		c36.9-0.1,74.9-2.5,111.9,0.2c1.9-4.5,6.3-7.6,11.5-7.6c6.9,0,12.5,5.6,12.5,12.5c0,6.9-5.6,12.5-12.5,12.5
		c-5.2,0-9.6-3.1-11.5-7.6c-35,2.5-70.9,0.3-105.9,0.2c-41.2-0.1-82.4-0.2-123.7-0.3C177.3,17.1,95.5,18.8,14.5,14
		c-0.7,3.3-3.6,5.8-7.2,5.8c-4,0-7.3-3.3-7.3-7.3C0,8.5,3.3,5.2,7.3,5.2z"/>
</g>
</svg>
