<?xml version="1.0" encoding="utf-8"?>
<!-- Generator: Adobe Illustrator 26.0.1, SVG Export Plug-In . SVG Version: 6.00 Build 0)  -->
<svg version="1.1" id="Layer_1" xmlns="http://www.w3.org/2000/svg" xmlns:xlink="http://www.w3.org/1999/xlink" x="0px" y="0px"
	 viewBox="0 0 512 25.1" style="enable-background:new 0 0 512 25.1;" xml:space="preserve">
<style type="text/css">
	.st0{fill:#545454;}
</style>
<g>
	<path class="st0" d="M504.7,5.2c-3.5,0-6.5,2.5-7.2,5.8c-79-4.7-158.8-3-237.9-3.2c-41.2-0.1-82.5-0.3-123.7-0.4
		C99.1,7.4,61,4.9,24.1,7.6C22.1,3.1,17.7,0,12.5,0C5.6,0,0,5.6,0,12.5c0,6.9,5.6,12.5,12.5,12.5c5.2,0,9.6-3.1,11.5-7.6
		c35,2.5,70.9,0.3,105.9,0.2c41.2-0.1,82.4-0.2,123.7-0.3c81.2-0.2,162.9,1.5,243.9-3.3c0.7,3.3,3.6,5.8,7.2,5.8
		c4,0,7.3-3.3,7.3-7.3C512,8.5,508.7,5.2,504.7,5.2z"/>
</g>
</svg>
