<?xml version="1.0" encoding="utf-8"?>
<!-- Generator: Adobe Illustrator 26.0.1, SVG Export Plug-In . SVG Version: 6.00 Build 0)  -->
<svg version="1.1" id="Layer_1" xmlns="http://www.w3.org/2000/svg" xmlns:xlink="http://www.w3.org/1999/xlink" x="0px" y="0px"
	 viewBox="0 0 512 512" style="enable-background:new 0 0 512 512;" xml:space="preserve">
<style type="text/css">
	.st0{fill:#3E3286;}
</style>
<path class="st0" d="M382.1,214.4c0,27.3-11.9,53.3-32.7,71L256,365.5l-93.4-80.1c-20.7-17.8-32.7-43.7-32.7-71
	c-1-50.2,63.4-76.8,98.1-40.6l19.1,19.1c4.9,4.9,12.9,4.9,17.8,0c0,0,0,0,0,0l19.1-19.1C318.7,137.6,383.1,164.2,382.1,214.4z"/>
<path class="st0" d="M107.1,237.9L3.8,149.3v-44.6c0-7,5.7-12.6,12.6-12.6h479.1c6.9,0,12.6,5.7,12.6,12.6v44.6l-103.3,88.5
	c21.7-90.7-90.7-145-148.9-71.7C197.9,92.8,85.4,147.2,107.1,237.9z"/>
<path class="st0" d="M508.2,182.5l0,224.8c0,7-5.7,12.6-12.6,12.6H16.4c-6.9,0-12.6-5.7-12.6-12.6V182.5
	c63.5,54.3,181.1,155.3,244,209.1c4.7,4.1,11.7,4.1,16.4,0l101.6-87.1C365.8,304.7,504.3,185.8,508.2,182.5z"/>
</svg>
