<?xml version="1.0" encoding="utf-8"?>
<!-- Generator: Adobe Illustrator 26.0.1, SVG Export Plug-In . SVG Version: 6.00 Build 0)  -->
<svg version="1.1" id="Layer_1" xmlns="http://www.w3.org/2000/svg" xmlns:xlink="http://www.w3.org/1999/xlink" x="0px" y="0px"
	 viewBox="0 0 512 512" style="enable-background:new 0 0 512 512;" xml:space="preserve">
<style type="text/css">
	.st0{fill:#3E3286;}
</style>
<g>
	<path class="st0" d="M474.4,83.6H37.6c-19,0-34.5,15.5-34.5,34.5v275.9c0,19,15.5,34.5,34.5,34.5h436.8c19,0,34.5-15.5,34.5-34.5
		V118.1C508.9,99.1,493.4,83.6,474.4,83.6z M26.1,118.1c0-6.3,5.2-11.5,11.5-11.5h436.8c6.3,0,11.5,5.2,11.5,11.5v40.7l-94.2,80.7
		c19.8-82.7-82.7-132.2-135.7-65.4c-53-66.8-155.5-17.2-135.7,65.4l-94.2-80.7V118.1z M370.9,218.1c0,24.9-10.9,48.6-29.8,64.8
		l-85.2,73l-85.2-73c-18.9-16.2-29.8-39.8-29.8-64.7c-0.9-45.7,57.8-70,89.4-37l17.4,17.4c4.5,4.5,11.8,4.5,16.2,0c0,0,0,0,0,0
		l17.4-17.4C313.1,148.1,371.9,172.3,370.9,218.1L370.9,218.1z M485.9,393.9c0,6.3-5.2,11.5-11.5,11.5H37.6
		c-6.3,0-11.5-5.2-11.5-11.5V189C84,238.6,191.2,330.6,248.5,379.7c4.3,3.7,10.7,3.7,15,0l92.6-79.4
		C354.6,301.7,482.3,192,485.9,189L485.9,393.9z"/>
</g>
</svg>
