<?xml version="1.0" encoding="utf-8"?>
<!-- Generator: Adobe Illustrator 26.0.1, SVG Export Plug-In . SVG Version: 6.00 Build 0)  -->
<svg version="1.1" id="Layer_1" xmlns="http://www.w3.org/2000/svg" xmlns:xlink="http://www.w3.org/1999/xlink" x="0px" y="0px"
	 viewBox="0 0 512 512" style="enable-background:new 0 0 512 512;" xml:space="preserve">
<style type="text/css">
	.st0{fill:#3E3286;}
</style>
<path class="st0" d="M504.7,390.2L307.5,34.9C299.3,20.3,281.5,4.6,256,4.6s-43.3,15.7-51.5,30.3L7.3,390.2C2.5,399,0,408.5,0,418.6
	c0,32.4,26.4,58.8,58.8,58.8h394.4c32.4,0,58.8-26.4,58.8-58.8C512,408.5,509.5,398.9,504.7,390.2z M453.2,440.2H58.8
	c-11.9,0-21.6-9.7-21.6-21.6c0-3.8,0.9-7.2,2.7-10.4L237.1,53c1-1.9,6.8-11.2,18.9-11.2c12.1,0,17.9,9.3,18.9,11.2l197.2,355.3
	c1.8,3.2,2.7,6.6,2.7,10.4C474.8,430.5,465.1,440.2,453.2,440.2z"/>
<path class="st0" d="M502.9,391.2L305.7,35.9C297.8,21.7,280.7,6.6,256,6.6s-41.8,15.1-49.7,29.3L9.1,391.2
	C4.4,399.6,2,408.9,2,418.6c0,31.3,25.5,56.8,56.8,56.8h394.4c31.3,0,56.8-25.5,56.8-56.8C510,408.9,507.6,399.6,502.9,391.2z
	 M453.2,440.2H58.8c-11.9,0-21.6-9.7-21.6-21.6c0-3.8,0.9-7.2,2.7-10.4L237.1,53c1-1.9,6.8-11.2,18.9-11.2
	c12.1,0,17.9,9.3,18.9,11.2l197.2,355.3c1.8,3.2,2.7,6.6,2.7,10.4C474.8,430.5,465.1,440.2,453.2,440.2z"/>
<path class="st0" d="M238.4,145v173.6h35.2V145H238.4z M236.4,359.9V399h39.2v-39.2H236.4z"/>
<path class="st0" d="M238.4,361.9V397h35.2v-35.2H238.4z M238.4,145v173.6h35.2V145H238.4z"/>
</svg>
