<?xml version="1.0" encoding="utf-8"?>
<!-- Generator: Adobe Illustrator 26.0.1, SVG Export Plug-In . SVG Version: 6.00 Build 0)  -->
<svg version="1.1" id="Layer_1" xmlns="http://www.w3.org/2000/svg" xmlns:xlink="http://www.w3.org/1999/xlink" x="0px" y="0px"
	 viewBox="0 0 512 512" style="enable-background:new 0 0 512 512;" xml:space="preserve">
<style type="text/css">
	.st0{fill-rule:evenodd;clip-rule:evenodd;fill:#3E3286;}
</style>
<path class="st0" d="M500.2,266.1c-0.5,0.5-1,1-1.5,1.5L304.6,436.8c-2.9,2.7-6.7,4.1-10.5,4.1c-4.3,0-8.5-1.8-11.4-5.1
	c-2.8-3.1-4.2-7-4-11.1c0.2-4.1,2-7.9,5-10.7l0.2-0.1c0.1-0.1,0.1-0.1,0.2-0.2l0.2-0.2l163.1-142.2H23.4c-8.5,0-15.5-6.9-15.5-15.5
	c0-8.5,6.9-15.5,15.5-15.5h423.9l-162.9-142c-3.1-2.7-5-6.5-5.2-10.6c-0.3-4.1,1.1-8.1,3.8-11.2c2.9-3.4,7.2-5.3,11.7-5.3
	c3.7,0,7.3,1.3,10.1,3.8l194.1,169.2C505.1,249.9,505.8,259.7,500.2,266.1z"/>
<path class="st0" d="M500.2,266.1c-0.5,0.5-1,1-1.5,1.5L304.6,436.8c-2.9,2.7-6.7,4.1-10.5,4.1c-4.3,0-8.5-1.8-11.4-5.1
	c-2.8-3.1-4.2-7-4-11.1c0.2-4.1,2-7.9,5-10.7l0.2-0.1c0.1-0.1,0.1-0.1,0.2-0.2l0.2-0.2l163.1-142.2H23.4c-8.5,0-15.5-6.9-15.5-15.5
	c0-8.5,6.9-15.5,15.5-15.5h423.9l-162.9-142c-3.1-2.7-5-6.5-5.2-10.6c-0.3-4.1,1.1-8.1,3.8-11.2c2.9-3.4,7.2-5.3,11.7-5.3
	c3.7,0,7.3,1.3,10.1,3.8l194.1,169.2C505.1,249.9,505.8,259.7,500.2,266.1z"/>
</svg>
