<?xml version="1.0" encoding="utf-8"?>
<!-- Generator: Adobe Illustrator 26.0.1, SVG Export Plug-In . SVG Version: 6.00 Build 0)  -->
<svg version="1.1" id="Layer_1" xmlns="http://www.w3.org/2000/svg" xmlns:xlink="http://www.w3.org/1999/xlink" x="0px" y="0px"
	 viewBox="0 0 512 512" style="enable-background:new 0 0 512 512;" xml:space="preserve">
<style type="text/css">
	.st0{fill:#3E3286;}
</style>
<path class="st0" d="M332.8,281.6H25.6C10.2,281.6,0,271.4,0,256s10.2-25.6,25.6-25.6h307.2c15.4,0,25.6,10.2,25.6,25.6
	S348.2,281.6,332.8,281.6z"/>
<path class="st0" d="M179.2,435.2H25.6C10.2,435.2,0,425,0,409.6S10.2,384,25.6,384h153.6c15.4,0,25.6,10.2,25.6,25.6
	S194.6,435.2,179.2,435.2z"/>
<path class="st0" d="M486.4,128H25.6C10.2,128,0,117.8,0,102.4s10.2-25.6,25.6-25.6h460.8c15.4,0,25.6,10.2,25.6,25.6
	S501.8,128,486.4,128z"/>
</svg>
