<?xml version="1.0" encoding="utf-8"?>
<!-- Generator: Adobe Illustrator 26.0.1, SVG Export Plug-In . SVG Version: 6.00 Build 0)  -->
<svg version="1.1" id="Layer_1" xmlns="http://www.w3.org/2000/svg" xmlns:xlink="http://www.w3.org/1999/xlink" x="0px" y="0px"
	 viewBox="0 0 512 512" style="enable-background:new 0 0 512 512;" xml:space="preserve">
<style type="text/css">
	.st0{fill:#FF0033;}
</style>
<g>
	<path class="st0" d="M492,106.8c-18.5-22-52.6-30.9-117.8-30.9H137.7c-66.7,0-101.4,9.5-119.8,32.9C0,131.6,0,165.2,0,211.7v88.6
		c0,90.1,21.3,135.8,137.7,135.8h236.6c56.5,0,87.8-7.9,108.1-27.3C503.1,389,512,356.5,512,300.3v-88.6
		C512,162.6,510.6,128.8,492,106.8L492,106.8z M328.7,268.2l-107.4,56.1c-8.1,4.2-18.1,1.1-22.3-7c-1.2-2.4-1.9-5-1.9-7.7V197.8
		c0-9.1,7.4-16.5,16.5-16.5c2.6,0,5.3,0.6,7.6,1.9l107.4,55.8c8.1,4.2,11.3,14.2,7,22.3C334.2,264.2,331.7,266.7,328.7,268.2
		L328.7,268.2z"/>
</g>
</svg>
