<?xml version="1.0" encoding="utf-8"?>
<!-- Generator: Adobe Illustrator 26.0.1, SVG Export Plug-In . SVG Version: 6.00 Build 0)  -->
<svg version="1.1" id="Layer_1" xmlns="http://www.w3.org/2000/svg" xmlns:xlink="http://www.w3.org/1999/xlink" x="0px" y="0px"
	 viewBox="0 0 512 512" style="enable-background:new 0 0 512 512;" xml:space="preserve">
<style type="text/css">
	.st0{fill:#FFFFFF;}
</style>
<g>
	<path class="st0" d="M41,85.9v304c0,46.7,37.9,84.5,84.5,84.5h103.1c9.4,0,17-7.6,17-17s-7.6-17-17-17H125.5
		c-27.9,0-50.6-22.7-50.6-50.6v-304c0-27.9,22.7-50.5,50.6-50.6h215.2c27.9,0,50.6,22.7,50.6,50.6v132.4c0,9.4,7.6,17,17,17
		c9.4,0,17-7.6,17-17V85.9c-0.1-46.7-37.9-84.5-84.5-84.5H125.5C78.9,1.4,41,39.2,41,85.9z"/>
	<path class="st0" d="M143.5,119.6h179.2c9.4,0,17-7.6,17-17s-7.6-17-17-17H143.5c-9.4,0-17,7.6-17,17S134.1,119.6,143.5,119.6z
		 M339.7,192.8c0-9.4-7.6-17-17-17H143.5c-9.4,0-17,7.6-17,17c0,9.4,7.6,17,17,17h179.2C332.1,209.8,339.7,202.2,339.7,192.8
		L339.7,192.8z M143.5,266c-9.4,0-17,7.6-17,17c0,9.4,7.6,17,17,17H225c9.4,0,17-7.6,17-17c0-9.4-7.6-17-17-17H143.5z M367.4,246.9
		c-32.3,0-58.6,26.2-58.6,58.6c0,32.3,26.2,58.6,58.6,58.6c32.3,0,58.6-26.2,58.6-58.5C425.9,273.1,399.7,246.9,367.4,246.9
		L367.4,246.9z M367.4,330.1c-13.6,0-24.6-11-24.6-24.6s11-24.6,24.6-24.6c13.6,0,24.6,11,24.6,24.6C392,319,381,330,367.4,330.1z
		 M280.7,510.6c9.4,0,17-7.6,17-17c0-38.5,31.2-69.7,69.7-69.7c38.5,0,69.6,31.2,69.7,69.7c0,9.4,7.6,17,17,17s17-7.6,17-17
		c0-57.2-46.4-103.6-103.6-103.6s-103.6,46.4-103.6,103.6C263.8,503,271.4,510.6,280.7,510.6z"/>
</g>
</svg>
