<?xml version="1.0" encoding="utf-8"?>
<!-- Generator: Adobe Illustrator 26.0.1, SVG Export Plug-In . SVG Version: 6.00 Build 0)  -->
<svg version="1.1" id="Layer_1" xmlns="http://www.w3.org/2000/svg" xmlns:xlink="http://www.w3.org/1999/xlink" x="0px" y="0px"
	 viewBox="0 0 512 512" style="enable-background:new 0 0 512 512;" xml:space="preserve">
<style type="text/css">
	.st0{fill:#FFFFFF;}
</style>
<path class="st0" d="M458.6,27.4H53.3c-28.1,0-50.9,22.9-50.9,50.9v269.8c0,28,22.9,50.9,50.9,50.9h125.8c-0.8,3.2-2.1,6.3-4,9.2
	H158c-11.4,0-20.7,9.3-20.7,20.7v17.4c0,21,17.1,38.1,38.1,38.1h162.4c21,0,38.1-17.1,38.1-38.1V429c0-11.4-9.3-20.7-20.7-20.7
	h-18.3c-1.8-2.8-3.2-5.9-4-9.2h125.8c28.1,0,50.9-22.9,50.9-50.9V78.4C509.6,50.3,486.7,27.5,458.6,27.4z M211.4,408.3
	c0.8-3,1.4-6.1,1.8-9.2h85.7c0.4,3.1,1,6.2,1.8,9.2H211.4z M337.8,451H175.4c-2.5,0-4.6-2.1-4.6-4.6v-4.6h171.5v4.6
	C342.4,449,340.3,451,337.8,451z M451.8,278.7l-15.2-4.8c-4.3-16.8-10.9-32.7-19.7-47.6l7.4-14.3c5.7-10.9,3.6-24.1-5.1-32.8
	l-21.6-21.6c-5.3-5.3-12.3-8.3-19.9-8.3c-4.5,0-9,1.1-13,3.2l-14.2,7.4c-14.9-8.8-30.9-15.4-47.6-19.7l-4.9-15.3
	c-3.7-11.7-14.4-19.6-26.8-19.6h-30.6c-12.3,0-23.1,7.9-26.7,19.6l-4.8,15.2c-16.8,4.3-32.7,10.9-47.6,19.7l-14.3-7.4
	c-4-2.1-8.4-3.2-12.9-3.2c-7.5,0-14.6,2.9-19.8,8.2l-21.6,21.6c-8.8,8.7-10.8,21.9-5.1,32.8l7.4,14.2c-8.8,14.9-15.4,30.9-19.8,47.6
	l-15.3,4.9c-11.7,3.7-19.6,14.5-19.6,26.8v7.6H36V78.4C36,68.8,43.8,61,53.4,61h405.3c9.6,0,17.4,7.8,17.4,17.4v234.7h-4.6v-7.5
	C471.5,293.2,463.5,282.4,451.8,278.7z M256,221.7v-9.9l0,0V221.7c52.1,0,94.8,40.3,98.8,91.4H157.2C161.2,262,204,221.7,256,221.7z
	 M256,188.1c-70.5,0.1-128.3,55.5-132.4,125H74.1v-3.6l20.6-6.6c5.8-1.8,10.1-6.7,11.4-12.7c3.9-19.4,11.4-37.5,22.4-54
	c3.4-5.1,3.7-11.6,0.9-17l-10-19.1l15.9-15.9l19.3,10c2.4,1.2,5,1.9,7.7,1.9c3.3,0,6.5-1,9.3-2.8c16.5-10.9,34.6-18.5,54-22.4
	c6-1.2,10.8-5.6,12.7-11.4l6.5-20.6h22.5l6.6,20.6c1.8,5.8,6.7,10.1,12.7,11.4c19.4,3.9,37.5,11.4,54,22.4c2.8,1.8,6,2.8,9.3,2.8
	c2.7,0,5.4-0.7,7.8-1.9l19.1-10l15.9,15.9l-10,19.2c-2.8,5.4-2.4,11.9,0.9,17c10.9,16.5,18.5,34.6,22.4,54c1.2,6,5.6,10.8,11.4,12.7
	l20.6,6.5v3.5h-49.4C384.4,243.6,326.5,188.2,256,188.1L256,188.1z M36,346.6H476v1.5c0,9.6-7.8,17.4-17.4,17.4l-3.2,0H53.4
	c-9.6,0-17.4-7.8-17.4-17.4V346.6z"/>
</svg>
