<?xml version="1.0" encoding="utf-8"?>
<!-- Generator: Adobe Illustrator 26.0.1, SVG Export Plug-In . SVG Version: 6.00 Build 0)  -->
<svg version="1.1" id="Layer_1" xmlns="http://www.w3.org/2000/svg" xmlns:xlink="http://www.w3.org/1999/xlink" x="0px" y="0px"
	 viewBox="0 0 512 512" style="enable-background:new 0 0 512 512;" xml:space="preserve">
<style type="text/css">
	.st0{fill-rule:evenodd;clip-rule:evenodd;fill:#FFFFFF;}
</style>
<g>
	<path class="st0" d="M256,40.4c-83.4,0-148.2,52.2-159.2,115.8H153c10.7,0,19.3,8.6,19.3,19.3v180.2c0,10.7-8.6,19.3-19.3,19.3
		H75.8C36.7,375,5,343.3,5,304.3V227c0-32.7,22.2-60.3,52.4-68.4C67.3,68.5,155,1.8,256,1.8s188.7,66.7,198.6,156.9
		C485.5,167,506.9,195,507,227v77.2c0,32.1-21.6,60.2-52.6,68.4C445.8,433.1,394.2,478,333.2,478h-29.5
		c-10.7,26.4-40.7,39.1-67,28.4c-26.4-10.7-39.1-40.7-28.4-67c10.7-26.4,40.7-39.1,67-28.4c12.9,5.2,23.2,15.5,28.4,28.4h29.5
		c38.8,0,72.5-26.6,81.4-64.3H359c-10.7,0-19.3-8.6-19.3-19.3V175.6c0-10.7,8.6-19.3,19.3-19.3h56.2C404.2,92.7,339.4,40.4,256,40.4
		z M75.8,194.9c-17.8,0-32.2,14.4-32.2,32.2v77.2c0,17.8,14.4,32.2,32.2,32.2h57.9V194.9H75.8z M468.3,227
		c0-17.8-14.4-32.2-32.2-32.2h-57.9v141.6h57.9c17.8,0,32.2-14.4,32.2-32.2V227z"/>
</g>
</svg>
