<?xml version="1.0" encoding="utf-8"?>
<!-- Generator: Adobe Illustrator 26.0.1, SVG Export Plug-In . SVG Version: 6.00 Build 0)  -->
<svg version="1.1" id="Layer_1" xmlns="http://www.w3.org/2000/svg" xmlns:xlink="http://www.w3.org/1999/xlink" x="0px" y="0px"
	 viewBox="0 0 300 300" style="enable-background:new 0 0 300 300;" xml:space="preserve">
<style type="text/css">
	.st0{fill:#FFFFFF;}
	.st1{fill:#5543C4;}
	.st2{fill:#9B59D8;}
</style>
<path class="st0" d="M213.46,45.78c-1.39,15.03-13.99,26.78-29.33,26.78c-16.27,0-29.47-13.23-29.47-29.54s13.18-29.56,29.45-29.56
	c1.64,0,3.27,0.14,4.86,0.41c3.44-2.77,7.8-4.44,12.56-4.44c11.11,0,20.1,9.02,20.1,20.15C221.62,36.23,218.41,42.09,213.46,45.78z
	 M137.23,34.95c0-18.54-14.99-33.57-33.49-33.57S70.25,16.41,70.25,34.95s14.99,33.57,33.49,33.57S137.23,53.5,137.23,34.95z
	 M36.76,216.26c7.68,15.38,50.73,91.93,129.2,81.36c6.52-0.87,12.83-2.73,18.82-5.41c14.55-6.54,33.74-15.69,46.24-31.63
	l-15.75-17.11l-0.23-0.25l-0.1-0.1c0,0-64.31,77.89-137.98-9.41c-9.38-10.74-33.49-42.98-30.82-85.96c0-6.15,2.24-47.3,45.97-43.77
	c8.32,0.68,16.41,2.99,23.97,6.54c11.76,5.49,29.52,16.31,46.61,37.24c17.41,21.49,81.72,98.04,81.72,98.04s24.53-20.33,32.68-73.33
	c2.42-15.69,1.7-31.81-2.98-46.99c-5.42-17.61-16.75-36.64-42.91-43.15c-8.44-2.11-17.18-2.42-25.81-1.38
	c-13.16,1.59-28.77,4.69-38.69,9.74h-0.02l-4,2.04l21.44,17.46c0,0,45.45-22.13,63.48,13.07c0.6,1.18,1.1,2.42,1.55,3.69
	c4.26,12.22,11.57,41.76-7.41,77.27c-12.05-16.12-65.64-77.89-65.64-77.89S122.62,62.2,62.24,84.88
	C52.1,88.7,43.1,95.18,36.6,103.86C23.95,120.78,10.2,155.38,36.76,216.26z"/>
<rect x="-469.8" y="-657.42" class="st1" width="52.14" height="52.14"/>
<rect x="-388.59" y="-657.42" class="st2" width="52.14" height="52.14"/>
</svg>
