<?xml version="1.0" encoding="utf-8"?>
<!-- Generator: Adobe Illustrator 26.0.1, SVG Export Plug-In . SVG Version: 6.00 Build 0)  -->
<svg version="1.1" id="Layer_1" xmlns="http://www.w3.org/2000/svg" xmlns:xlink="http://www.w3.org/1999/xlink" x="0px" y="0px"
	 viewBox="0 0 512 512" style="enable-background:new 0 0 512 512;" xml:space="preserve">
<style type="text/css">
	.st0{fill:#FFFFFF;}
</style>
<g>
	<path class="st0" d="M472.4,375.3l-30.7-44.1c-4.2-6-6.4-13.1-6.5-20.4V184.2C435.3,85.2,355,5,256,5S76.7,85.2,76.7,184.2v126.6
		c0,7.3-2.3,14.4-6.5,20.4l-30.7,44.1C26.3,390,27.5,412.7,42.2,426c6.6,5.9,15.1,9.2,23.9,9.2h102c9.9,48.5,57.2,79.9,105.7,70
		c35.3-7.2,62.8-34.7,70-70h102c19.8,0,35.8-16.1,35.8-35.9C481.6,390.4,478.3,381.9,472.4,375.3L472.4,375.3z M256,471.1
		c-22.7-0.1-43-14.4-50.6-35.9h101.1C299,456.7,278.7,471,256,471.1z M66.1,399.4c0.8-0.8,1.5-1.6,2.2-2.5l31.4-45.2
		c8.4-12,12.9-26.3,12.9-40.9V184.2c0-79.2,64.2-143.4,143.4-143.4S399.4,105,399.4,184.2v126.6c0,14.6,4.5,28.9,12.9,40.9
		l31.4,45.2c0.6,0.9,1.3,1.8,2.2,2.5H66.1z"/>
</g>
</svg>
