<?xml version="1.0" encoding="utf-8"?>
<!-- Generator: Adobe Illustrator 26.0.1, SVG Export Plug-In . SVG Version: 6.00 Build 0)  -->
<svg version="1.1" id="Layer_1" xmlns="http://www.w3.org/2000/svg" xmlns:xlink="http://www.w3.org/1999/xlink" x="0px" y="0px"
	 viewBox="0 0 512 512" style="enable-background:new 0 0 512 512;" xml:space="preserve">
<style type="text/css">
	.st0{fill:#FFFFFF;}
</style>
<g>
	<path class="st0" d="M256,460.8c38.3,0,73.1-9,104.2-27c30.8-17.4,56.3-42.8,73.7-73.7c18-31.4,27-66.2,27-104.2
		c0-38.3-9-73.1-27-104.2c-17.2-31-42.7-56.5-73.7-73.7c-31.1-18-65.9-27-104.2-27c-38,0-72.8,9-104.2,27
		C121,95.5,95.5,121,78.2,151.8c-18,31.1-27,65.9-27,104.2c0,38,9,72.8,27,104.2c17.5,30.7,43,56.1,73.7,73.7
		C183.2,451.8,218,460.8,256,460.8z M256,512c-45.1,0.3-89.4-11.5-128.5-34.1c-38.7-22.5-70.9-54.7-93.4-93.4
		C11.5,345.4-0.3,301.1,0,256c0-46.4,11.4-89.2,34.1-128.5c22.5-38.6,54.7-70.7,93.4-93C166.5,11.7,210.9-0.3,256,0
		c46.4,0,89.2,11.5,128.5,34.6c38.8,22.3,70.8,54.6,92.9,93.4c23.1,39.2,34.6,81.9,34.6,128s-11.5,88.9-34.6,128.4
		c-22.4,38.8-54.6,71.1-93.4,93.4C345.2,500.5,301,512.3,256,512z"/>
</g>
</svg>
