<?xml version="1.0" encoding="utf-8"?>
<!-- Generator: Adobe Illustrator 26.0.1, SVG Export Plug-In . SVG Version: 6.00 Build 0)  -->
<svg version="1.1" id="Layer_1" xmlns="http://www.w3.org/2000/svg" xmlns:xlink="http://www.w3.org/1999/xlink" x="0px" y="0px"
	 viewBox="0 0 512 512" style="enable-background:new 0 0 512 512;" xml:space="preserve">
<style type="text/css">
	.st0{fill:#FFFFFF;}
</style>
<g>
	<path class="st0" d="M435.6,266.1h-49.7c-6.2,0-12.5,0.8-18.5,2.3c-13.4-25-39-40.5-67.4-40.5H212c-28.3,0-54,15.5-67.4,40.5
		c-6.1-1.5-12.3-2.3-18.5-2.3H76.4C34.3,266.1,0,300.3,0,342.5V422c0,25.7,20.9,46.6,46.6,46.6h418.7c25.7,0,46.6-20.9,46.6-46.6
		v-79.5C512,300.3,477.7,266.1,435.6,266.1z M33.7,342.5c0-23.5,19.1-42.7,42.7-42.7h49.7c3.2,0,6.4,0.4,9.6,1.1
		c-0.1,1.1-0.1,2.3-0.1,3.4v130.6h-89c-7.1,0-12.9-5.8-12.9-12.9V342.5z M212,261.6H300c23.5,0,42.7,19.1,42.7,42.7v130.6H169.4
		V304.3C169.4,280.8,188.5,261.6,212,261.6z M376.3,300.9c3.1-0.7,6.4-1.1,9.6-1.1h49.7c23.5,0,42.7,19.1,42.7,42.7V422
		c0,7.1-5.8,12.9-12.9,12.9h-89V304.3C376.4,303.2,376.3,302,376.3,300.9z"/>
	<path class="st0" d="M101.3,261.8c37.6,0,68.1-30.6,68.1-68.1s-30.6-68.1-68.1-68.1s-68.1,30.6-68.1,68.1c0,18.2,7.1,35.3,20,48.1
		C66,254.7,83.1,261.8,101.3,261.8z M101.3,159.3c19,0,34.4,15.4,34.4,34.4S120.2,228,101.3,228s-34.4-15.4-34.4-34.4
		S82.3,159.3,101.3,159.3z"/>
	<path class="st0" d="M410.7,261.8c37.6,0,68.1-30.6,68.1-68.1s-30.6-68.1-68.1-68.1s-68.1,30.6-68.1,68.1
		C342.6,231.2,373.2,261.8,410.7,261.8z M410.7,228c-19,0-34.4-15.4-34.4-34.4c0-19,15.4-34.4,34.4-34.4c19,0,34.4,15.4,34.4,34.4
		S429.7,228,410.7,228z"/>
	<path class="st0" d="M256,224.1c49.8,0,90.3-40.5,90.3-90.3S305.8,43.4,256,43.4c-49.8,0-90.3,40.5-90.3,90.3
		S206.2,224.1,256,224.1z M256,77.1c31.2,0,56.6,25.4,56.6,56.6s-25.4,56.6-56.6,56.6c-31.2,0-56.6-25.4-56.6-56.6
		S224.8,77.1,256,77.1z"/>
</g>
</svg>
