<?xml version="1.0" encoding="utf-8"?>
<!-- Generator: Adobe Illustrator 26.0.1, SVG Export Plug-In . SVG Version: 6.00 Build 0)  -->
<svg version="1.1" id="Layer_1" xmlns="http://www.w3.org/2000/svg" xmlns:xlink="http://www.w3.org/1999/xlink" x="0px" y="0px"
	 viewBox="0 0 512 512" style="enable-background:new 0 0 512 512;" xml:space="preserve">
<style type="text/css">
	.st0{fill-rule:evenodd;clip-rule:evenodd;fill:#3E3286;}
	.st1{fill-rule:evenodd;clip-rule:evenodd;fill:#2D2A70;}
	.st2{fill-rule:evenodd;clip-rule:evenodd;fill:#FFFFFF;}
</style>
<circle class="st0" cx="256" cy="256" r="256"/>
<path class="st1" d="M507.4,304.4C484.8,422.6,380.8,512,256,512c-15.6,0-30.8-1.4-45.6-4.1L93.5,391.1
	c7.9-76.9,68.4-137.2,144.6-145.4l-34.8-34.8c-13.5-13.5-21.8-32.1-21.8-52.7c0-41.1,33.4-74.5,74.5-74.5c21.8,0,41.5,9.4,55.1,24.4
	L507.4,304.4z"/>
<path class="st2" d="M181.5,158.2c0-41.1,33.4-74.5,74.5-74.5s74.5,33.4,74.5,74.5c0,41.1-33.4,74.5-74.5,74.5
	C214.9,232.7,181.5,199.3,181.5,158.2L181.5,158.2z M256,244.7c84.4,0,154,63.6,162.5,146.4c-51.6,11.7-106.2,17.6-162.5,17.6
	c-56.2,0-110.9-5.9-162.5-17.6C102,308.2,171.6,244.7,256,244.7L256,244.7z"/>
</svg>
